<svg xmlns="http://www.w3.org/2000/svg" xmlns:xlink="http://www.w3.org/1999/xlink" width="500" zoomAndPan="magnify" viewBox="0 0 375 374.999991" height="500" preserveAspectRatio="xMidYMid meet" version="1.0"><defs><g/><clipPath id="44c30d25ed"><path d="M 96 132 L 269 132 L 269 278 L 96 278 Z M 96 132 " clip-rule="nonzero"/></clipPath><clipPath id="384d9629ae"><path d="M 96.144531 212.578125 L 250.28125 132.640625 L 299.59375 227.726562 L 145.457031 307.660156 Z M 96.144531 212.578125 " clip-rule="nonzero"/></clipPath><clipPath id="b3fdb7f991"><path d="M 65.542969 153.5625 L 219.679688 73.628906 L 299.613281 227.765625 L 145.476562 307.703125 Z M 65.542969 153.5625 " clip-rule="nonzero"/></clipPath><clipPath id="d888a2b9f4"><path d="M 100 135 L 263 135 L 263 272 L 100 272 Z M 100 135 " clip-rule="nonzero"/></clipPath><clipPath id="c3e24c751f"><path d="M 100.425781 210.710938 L 244.554688 135.96875 L 290.753906 225.046875 L 146.625 299.792969 Z M 100.425781 210.710938 " clip-rule="nonzero"/></clipPath><clipPath id="757e1a6c65"><path d="M 71.632812 155.183594 L 215.761719 80.441406 L 290.503906 224.570312 L 146.375 299.3125 Z M 71.632812 155.183594 " clip-rule="nonzero"/></clipPath><clipPath id="d7b40cacfb"><path d="M 111 142 L 257 142 L 257 264.640625 L 111 264.640625 Z M 111 142 " clip-rule="nonzero"/></clipPath><clipPath id="30494b3c4c"><path d="M 92 69.585938 L 198 69.585938 L 198 198 L 92 198 Z M 92 69.585938 " clip-rule="nonzero"/></clipPath><clipPath id="46bcd718c0"><path d="M 226.957031 53.109375 L 317.238281 53.109375 L 317.238281 143.390625 L 226.957031 143.390625 Z M 226.957031 53.109375 " clip-rule="nonzero"/></clipPath><clipPath id="9e168e231f"><path d="M 272.097656 53.109375 C 247.167969 53.109375 226.957031 73.320312 226.957031 98.25 C 226.957031 123.183594 247.167969 143.390625 272.097656 143.390625 C 297.03125 143.390625 317.238281 123.183594 317.238281 98.25 C 317.238281 73.320312 297.03125 53.109375 272.097656 53.109375 Z M 272.097656 53.109375 " clip-rule="nonzero"/></clipPath><clipPath id="f2a156124e"><path d="M 148 134 L 302.460938 134 L 302.460938 295 L 148 295 Z M 148 134 " clip-rule="nonzero"/></clipPath><clipPath id="107b71752e"><path d="M 240 100.019531 L 258 100.019531 L 258 126 L 240 126 Z M 240 100.019531 " clip-rule="nonzero"/></clipPath><clipPath id="ce68ff343b"><path d="M 109.660156 282 L 145 282 L 145 298 L 109.660156 298 Z M 109.660156 282 " clip-rule="nonzero"/></clipPath></defs><g clip-path="url(#44c30d25ed)"><g clip-path="url(#384d9629ae)"><g clip-path="url(#b3fdb7f991)"><path fill="#f68712" d="M 222.066406 267.386719 C 179.714844 289.351562 127.351562 272.75 105.386719 230.398438 C 83.421875 188.042969 100.023438 135.683594 142.375 113.71875 C 184.730469 91.753906 237.089844 108.351562 259.054688 150.707031 C 281.019531 193.058594 264.421875 245.421875 222.066406 267.386719 Z M 142.964844 114.855469 C 101.214844 136.503906 84.871094 188.0625 106.523438 229.808594 C 128.171875 271.558594 179.730469 287.902344 221.476562 266.25 C 263.226562 244.601562 279.570312 193.042969 257.921875 151.296875 C 236.269531 109.546875 184.710938 93.203125 142.964844 114.855469 Z M 142.964844 114.855469 " fill-opacity="1" fill-rule="nonzero"/></g></g></g><g clip-path="url(#d888a2b9f4)"><g clip-path="url(#c3e24c751f)"><g clip-path="url(#757e1a6c65)"><path fill="#51ade5" d="M 218.902344 262.277344 C 179.054688 282.941406 129.785156 267.324219 109.121094 227.476562 C 88.457031 187.625 104.074219 138.359375 143.921875 117.695312 C 183.769531 97.03125 233.039062 112.648438 253.703125 152.496094 C 274.367188 192.34375 258.75 241.613281 218.902344 262.277344 Z M 144.476562 118.761719 C 105.195312 139.132812 89.820312 187.640625 110.1875 226.921875 C 130.558594 266.199219 179.070312 281.578125 218.347656 261.207031 C 257.628906 240.839844 273.003906 192.328125 252.636719 153.050781 C 232.265625 113.769531 183.753906 98.394531 144.476562 118.761719 Z M 144.476562 118.761719 " fill-opacity="1" fill-rule="nonzero"/></g></g></g><g clip-path="url(#d7b40cacfb)"><path fill="#51ade5" d="M 161.820312 225.714844 C 168.785156 224.800781 175.417969 218.582031 175.539062 218.46875 C 175.527344 218.511719 175.761719 218.957031 182.023438 223.238281 C 189.550781 228.382812 196.382812 220.703125 196.382812 220.703125 C 206.625 227.074219 213.660156 224.0625 213.660156 224.0625 C 207.429688 228.105469 198.5625 225.433594 198.5625 225.433594 C 184.988281 233.078125 175.808594 223.929688 175.808594 223.929688 C 170.109375 226.644531 161.820312 225.714844 161.820312 225.714844 Z M 111.078125 219.699219 C 115.410156 229.164062 121.632812 237.585938 129.261719 244.476562 C 151.15625 240.96875 159.617188 231.007812 159.617188 231.007812 C 159.617188 231.007812 165.960938 242.035156 180.957031 241.929688 C 195.953125 241.824219 199.261719 231.007812 199.261719 231.007812 C 199.261719 231.007812 204.605469 237.996094 218.449219 241.390625 C 227.34375 243.574219 237.769531 238.046875 240.816406 233.839844 L 240.820312 233.832031 C 235.5 232.523438 231.761719 231.136719 231.761719 231.136719 C 221.089844 237.550781 209.863281 232.886719 209.863281 232.886719 C 221.121094 234.910156 230.480469 220.863281 230.480469 220.863281 C 230.480469 220.863281 234.546875 226.042969 243.570312 229.941406 C 251.5 217.949219 256.117188 203.570312 256.117188 188.117188 C 256.117188 171.050781 250.488281 155.300781 240.988281 142.621094 C 239.6875 143.539062 238.183594 144.769531 236.277344 146.824219 C 220.730469 163.597656 198.511719 180.128906 181.171875 190.96875 C 157.453125 205.792969 132.570312 215.410156 111.078125 219.699219 Z M 130.886719 245.90625 C 144.152344 257.230469 161.359375 264.066406 180.167969 264.066406 C 196.632812 264.066406 211.875 258.824219 224.316406 249.921875 C 211.046875 250.242188 201.777344 242.695312 201.777344 242.695312 C 180.996094 257.601562 159.617188 242.035156 159.617188 242.035156 C 144.828125 246.160156 135.78125 246.390625 130.886719 245.90625 " fill-opacity="1" fill-rule="nonzero"/></g><path fill="#fb9001" d="M 181.171875 190.96875 C 198.511719 180.128906 220.730469 163.597656 236.277344 146.824219 C 238.183594 144.769531 239.6875 143.539062 240.988281 142.621094 C 241.351562 143.105469 241.707031 143.59375 242.058594 144.085938 C 232.816406 158.316406 214.929688 182.652344 189.609375 202.660156 C 167.152344 220.402344 144.023438 233.125 124.359375 239.628906 C 118.945312 233.765625 114.441406 227.046875 111.078125 219.699219 C 132.570312 215.410156 157.453125 205.792969 181.171875 190.96875 " fill-opacity="1" fill-rule="nonzero"/><path fill="#f68712" d="M 233.472656 134.019531 C 225.382812 142.851562 210.3125 157.511719 189.144531 170.65625 C 171.101562 181.855469 152.273438 190.28125 135.867188 194.773438 C 132.40625 195.71875 129.054688 196.488281 125.84375 197.074219 C 120.992188 197.957031 116.457031 198.417969 112.339844 198.417969 C 109.546875 198.417969 107.03125 198.203125 104.828125 197.792969 C 104.425781 194.625 104.21875 191.394531 104.21875 188.117188 C 104.21875 160.519531 118.9375 136.359375 140.953125 123.0625 C 147.730469 118.964844 155.199219 115.902344 163.144531 114.082031 C 163.1875 114.070312 163.226562 114.0625 163.269531 114.054688 C 165.332031 113.585938 167.433594 113.199219 169.558594 112.902344 C 169.851562 112.859375 170.148438 112.820312 170.445312 112.78125 C 172.546875 112.515625 174.671875 112.332031 176.828125 112.238281 C 176.964844 112.234375 177.101562 112.226562 177.242188 112.222656 C 178.214844 112.183594 179.1875 112.167969 180.167969 112.167969 C 184.027344 112.167969 187.820312 112.453125 191.527344 113.011719 C 207.757812 115.445312 222.3125 123.019531 233.472656 134.019531 " fill-opacity="1" fill-rule="nonzero"/><path fill="#60513f" d="M 274.164062 102.449219 C 280.0625 93.410156 283.246094 85.382812 281.347656 84.085938 C 279.445312 82.792969 273.136719 88.6875 266.871094 97.472656 L 242.808594 97.65625 L 238.953125 103.304688 L 257.820312 111.5625 C 255.390625 115.570312 252.875 119.859375 250.675781 123.8125 L 238.375 123.167969 L 236.527344 125.871094 L 247.050781 130.589844 C 246.867188 130.960938 227.894531 156.191406 193.441406 177.582031 C 146.84375 206.515625 99.9375 215.265625 88.648438 197.101562 C 80.828125 184.511719 92.171875 162.308594 115.375 140.226562 C 78.253906 168.988281 57.777344 201.253906 68.195312 218.019531 C 80.613281 238.007812 132.316406 228.53125 183.492188 196.546875 C 224.875 170.679688 250.445312 133.105469 250.558594 132.980469 L 254.992188 139.128906 L 256.835938 136.425781 L 255.546875 127.136719 C 258.425781 123.644531 261.503906 119.738281 264.347656 116.015625 L 268.550781 128.851562 L 272.402344 123.199219 L 274.164062 102.449219 " fill-opacity="1" fill-rule="nonzero"/><g clip-path="url(#30494b3c4c)"><path fill="#60513f" d="M 179.242188 113.855469 C 181.667969 115.945312 184.613281 117.320312 187.753906 117.925781 C 191.085938 118.566406 194.195312 119.574219 197.617188 121.199219 C 197.617188 121.199219 195.542969 117.277344 191.527344 113.011719 C 185.53125 106.636719 175.207031 99.5 161 103.515625 C 161.207031 103.382812 161.417969 103.253906 161.628906 103.117188 C 160.605469 102.710938 159.417969 102.378906 158.074219 102.230469 C 158.074219 102.230469 158.78125 102.015625 159.945312 102.003906 C 162.148438 101.980469 164.3125 101.441406 166.238281 100.378906 L 166.304688 100.339844 C 165.144531 99.8125 164.507812 98.925781 162.867188 98.742188 C 162.867188 98.742188 163.8125 98.460938 165.3125 98.527344 C 167.804688 98.640625 170.289062 98.179688 172.539062 97.097656 C 172.664062 97.039062 172.789062 96.976562 172.917969 96.917969 C 171.660156 96.265625 170.046875 95.679688 168.125 95.464844 C 168.125 95.464844 169.453125 95.023438 171.304688 95.03125 C 174.992188 95.050781 178.640625 94.292969 182.0625 92.917969 C 182.203125 92.859375 182.339844 92.804688 182.46875 92.753906 C 179.464844 91.855469 175.4375 90.953125 173.492188 90.734375 C 173.492188 90.734375 183.074219 89.738281 190.148438 90.441406 C 190.148438 90.441406 166.269531 73.96875 152.789062 104.011719 C 155.027344 96.507812 155.683594 83.449219 143.765625 75.324219 C 138.175781 71.515625 130.503906 69.582031 130.503906 69.582031 C 132.621094 71.667969 143.0625 84.007812 143.992188 85.894531 C 143.914062 85.832031 141.34375 83.933594 138.332031 82.667969 C 138.375 82.8125 138.421875 82.953125 138.46875 83.097656 C 139.285156 85.710938 144.21875 91.730469 144.785156 92.878906 C 144.785156 92.878906 142.710938 91.332031 140.082031 90.085938 C 140.699219 93.875 142.457031 97.933594 142.613281 101.359375 C 130.59375 77.972656 104.339844 85.238281 104.339844 85.238281 C 112.972656 86.160156 124.179688 89.734375 124.179688 89.734375 C 121.800781 89.507812 116.761719 89.589844 112.949219 89.917969 C 113.074219 90 113.210938 90.089844 113.351562 90.183594 C 117.125 92.691406 121.324219 94.515625 125.757812 95.425781 C 127.960938 95.878906 129.421875 96.726562 129.421875 96.726562 C 127.070312 96.503906 125 96.808594 123.332031 97.269531 L 123.53125 97.417969 C 126.050781 99.335938 129.011719 100.578125 132.132812 101.105469 C 133.878906 101.40625 134.890625 101.957031 134.890625 101.957031 C 132.886719 101.765625 131.910156 102.667969 130.386719 103.011719 C 130.457031 103.070312 130.519531 103.128906 130.585938 103.183594 C 131.132812 103.652344 131.710938 104.082031 132.3125 104.464844 C 100.90625 94.3125 92.726562 117.046875 92.726562 117.046875 C 99.785156 112.136719 110.460938 107.546875 110.667969 107.457031 C 108.722656 108.847656 104.964844 112.207031 102.296875 114.949219 C 102.324219 114.945312 102.347656 114.941406 102.375 114.9375 C 107.113281 114.308594 111.679688 112.78125 115.90625 110.550781 C 117.726562 109.59375 119.210938 109.308594 119.210938 109.308594 C 117.285156 110.683594 115.917969 112.265625 114.960938 113.707031 C 115.003906 113.707031 115.046875 113.703125 115.085938 113.699219 C 118.300781 113.496094 121.398438 112.488281 124.15625 110.828125 C 125.609375 109.953125 126.699219 109.695312 126.765625 109.683594 C 125.128906 110.851562 124.976562 112.175781 124.054688 113.429688 L 124.121094 113.429688 C 126.777344 113.414062 129.40625 112.761719 131.730469 111.472656 C 132.992188 110.773438 133.898438 110.5625 133.953125 110.550781 C 132.609375 111.507812 131.542969 112.570312 130.691406 113.613281 C 131.945312 113.675781 133.140625 113.757812 134.273438 113.851562 C 116.953125 118.113281 117.054688 138.195312 117.054688 138.195312 C 118.078125 136.046875 119.398438 134.1875 120.914062 132.566406 C 121.660156 128.628906 123.246094 125.542969 123.246094 125.542969 C 122.898438 127.523438 123.644531 132.074219 123.65625 132.0625 C 126.148438 129.875 127.214844 125.910156 128.503906 122.855469 C 128.832031 122.066406 129.070312 121.609375 129.070312 121.609375 C 128.726562 123.535156 128.566406 125.257812 128.527344 126.78125 C 128.546875 126.769531 128.566406 126.757812 128.585938 126.75 C 131.867188 124.917969 134.488281 122.09375 135.996094 118.652344 C 136.246094 118.078125 135.886719 121.722656 135.867188 123.347656 C 140.316406 119.25 143.058594 120.402344 143.058594 120.402344 C 142.398438 121.1875 141.691406 122.070312 140.953125 123.0625 C 132.921875 133.828125 121.226562 156.972656 125.84375 197.074219 C 129.054688 196.488281 132.40625 195.71875 135.867188 194.773438 C 132.105469 179.070312 127.617188 146.777344 145.960938 122.792969 C 145.964844 122.972656 146.636719 121.714844 147.226562 121.078125 C 147.332031 121.167969 146.039062 126.605469 145.960938 128.871094 L 145.957031 128.921875 C 147.039062 128.179688 148.15625 128.085938 149.183594 126.738281 C 149.171875 126.792969 148.925781 127.703125 148.152344 128.90625 C 146.679688 131.1875 145.753906 133.777344 145.5 136.480469 C 145.496094 136.511719 145.492188 136.542969 145.492188 136.578125 C 146.726562 135.808594 148.097656 134.699219 149.304688 133.113281 C 149.285156 133.1875 149 134.402344 148.171875 135.867188 C 146.179688 139.371094 144.78125 143.175781 144.128906 147.152344 C 144.128906 147.171875 144.125 147.191406 144.121094 147.214844 C 146.496094 145.039062 149.425781 141.957031 150.644531 140.355469 C 150.558594 140.539062 146.421875 149.40625 142.105469 155.222656 C 142.105469 155.222656 161.414062 146.703125 155.058594 122.34375 C 155.980469 126.003906 158.121094 129.234375 161.136719 131.503906 C 161.15625 131.519531 161.183594 131.539062 161.207031 131.554688 C 161.542969 130.214844 161.671875 126.683594 161.734375 125.011719 C 161.734375 125.011719 165.621094 129.707031 167.191406 136.402344 L 167.238281 136.445312 C 167.550781 135.148438 167.957031 131.683594 168.019531 130.09375 C 168.019531 130.09375 170.890625 135.933594 175.605469 148.578125 C 175.605469 148.578125 181.414062 126.820312 164.699219 115.007812 C 166.917969 116.15625 169.394531 116.746094 171.910156 116.730469 L 171.980469 116.730469 C 171.605469 115.863281 169.574219 113.550781 169.265625 113.117188 C 169.265625 113.117188 176.636719 116.734375 179.652344 116.945312 L 179.738281 116.953125 C 179.285156 115.921875 177.167969 112.65625 177.03125 112.457031 C 177.03125 112.457031 178.488281 113.207031 179.242188 113.855469 " fill-opacity="1" fill-rule="nonzero"/></g><g clip-path="url(#46bcd718c0)"><g clip-path="url(#9e168e231f)"><path fill="#ffffff" d="M 226.957031 53.109375 L 317.238281 53.109375 L 317.238281 143.390625 L 226.957031 143.390625 Z M 226.957031 53.109375 " fill-opacity="1" fill-rule="nonzero"/></g></g><g clip-path="url(#f2a156124e)"><path fill="#060404" d="M 301.160156 208.914062 C 300.722656 210.085938 300.199219 211.214844 299.597656 212.3125 L 298.210938 211.550781 C 298.777344 210.523438 299.265625 209.457031 299.675781 208.359375 C 299.738281 208.191406 299.800781 208.019531 299.859375 207.847656 L 301.355469 208.367188 C 301.292969 208.546875 301.226562 208.726562 301.160156 208.902344 Z M 300.828125 203.925781 C 300.96875 202.996094 301.046875 202.0625 301.0625 201.121094 C 301.0625 200.71875 301.0625 200.304688 301.039062 199.902344 L 302.621094 199.824219 C 302.640625 200.261719 302.648438 200.703125 302.644531 201.136719 C 302.636719 202.148438 302.558594 203.15625 302.410156 204.160156 Z M 294.398438 219.140625 L 293.285156 218.015625 C 294.253906 217.058594 295.15625 216.042969 295.984375 214.960938 L 297.242188 215.921875 C 296.367188 217.0625 295.421875 218.132812 294.398438 219.140625 Z M 300.445312 195.910156 C 300.121094 194.59375 299.6875 193.3125 299.140625 192.070312 L 300.589844 191.4375 C 301.171875 192.761719 301.636719 194.125 301.980469 195.527344 Z M 287.585938 224.34375 L 286.796875 222.976562 C 287.980469 222.292969 289.113281 221.539062 290.199219 220.710938 L 291.160156 221.96875 C 290.019531 222.832031 288.828125 223.621094 287.585938 224.332031 Z M 297.222656 188.507812 C 296.484375 187.363281 295.671875 186.273438 294.78125 185.242188 L 295.980469 184.210938 C 296.925781 185.296875 297.785156 186.445312 298.566406 187.65625 Z M 279.621094 227.535156 L 279.261719 225.996094 C 280.585938 225.683594 281.875 225.273438 283.132812 224.757812 L 283.730469 226.226562 C 282.394531 226.769531 281.023438 227.207031 279.621094 227.535156 Z M 291.921875 182.320312 C 290.902344 181.410156 289.828125 180.570312 288.699219 179.800781 L 289.59375 178.492188 C 290.777344 179.300781 291.902344 180.183594 292.972656 181.136719 Z M 271.023438 228.007812 L 271.199219 226.4375 C 272.546875 226.585938 273.898438 226.628906 275.253906 226.558594 L 275.335938 228.140625 C 273.894531 228.210938 272.457031 228.167969 271.023438 228.007812 Z M 285.175781 177.722656 C 284.273438 177.265625 283.347656 176.863281 282.402344 176.507812 C 282.074219 176.386719 281.742188 176.273438 281.417969 176.164062 L 281.910156 174.660156 C 282.253906 174.773438 282.613281 174.894531 282.953125 175.023438 C 283.953125 175.402344 284.933594 175.828125 285.886719 176.308594 Z M 263.304688 226.128906 L 262.71875 225.90625 L 263.296875 224.433594 C 263.488281 224.503906 263.671875 224.578125 263.859375 224.644531 C 264.949219 225.054688 266.058594 225.40625 267.191406 225.695312 L 266.796875 227.230469 C 265.613281 226.925781 264.449219 226.558594 263.304688 226.128906 Z M 273.445312 175.015625 L 273.390625 173.433594 C 274.835938 173.386719 276.269531 173.464844 277.699219 173.667969 L 277.464844 175.234375 C 276.132812 175.042969 274.792969 174.972656 273.445312 175.015625 Z M 258.832031 224.128906 C 257.601562 223.488281 256.363281 222.765625 255.148438 221.980469 L 256.007812 220.652344 C 257.183594 221.410156 258.378906 222.109375 259.566406 222.726562 Z M 265.472656 176.53125 L 264.96875 175.03125 C 266.328125 174.570312 267.714844 174.203125 269.125 173.925781 L 269.425781 175.480469 C 268.085938 175.742188 266.769531 176.089844 265.472656 176.53125 Z M 251.675781 219.519531 C 250.574219 218.671875 249.476562 217.75 248.414062 216.792969 L 249.472656 215.617188 C 250.503906 216.558594 251.574219 217.4375 252.640625 218.265625 Z M 258.019531 179.984375 L 257.222656 178.617188 C 258.484375 177.878906 259.757812 177.207031 260.996094 176.632812 L 261.667969 178.066406 C 260.472656 178.625 259.257812 179.273438 258.023438 179.984375 Z M 245.363281 213.835938 C 244.394531 212.824219 243.441406 211.761719 242.542969 210.675781 L 243.757812 209.660156 C 244.640625 210.71875 245.570312 211.757812 246.519531 212.738281 Z M 251.199219 184.664062 L 250.222656 183.417969 C 251.359375 182.523438 252.511719 181.679688 253.636719 180.898438 L 254.535156 182.203125 C 253.4375 182.960938 252.3125 183.789062 251.199219 184.664062 Z M 239.917969 207.332031 C 239.089844 206.195312 238.273438 205.011719 237.535156 203.824219 L 238.871094 202.976562 C 239.605469 204.136719 240.390625 205.289062 241.199219 206.398438 Z M 244.9375 190.128906 L 243.84375 188.984375 C 244.882812 187.992188 245.929688 187.027344 246.964844 186.125 L 248.003906 187.316406 C 246.988281 188.203125 245.957031 189.152344 244.933594 190.128906 Z M 239.148438 196.125 L 237.972656 195.066406 C 238.925781 194.003906 239.894531 192.953125 240.851562 191.972656 L 241.988281 193.070312 C 241.042969 194.046875 240.089844 195.074219 239.144531 196.125 Z M 235.90625 199.886719 C 235.199219 200.742188 234.476562 201.621094 233.769531 202.511719 L 232.53125 201.53125 C 233.234375 200.628906 233.972656 199.730469 234.695312 198.867188 C 234.273438 198.039062 233.867188 197.203125 233.484375 196.371094 L 234.921875 195.710938 C 235.492188 196.953125 236.113281 198.199219 236.773438 199.414062 Z M 229.59375 208 L 229.515625 208.101562 C 229.253906 208.460938 228.988281 208.828125 228.726562 209.1875 L 227.445312 208.261719 C 227.707031 207.894531 227.976562 207.527344 228.246094 207.164062 L 228.320312 207.0625 C 228.757812 206.46875 229.300781 205.730469 229.949219 204.871094 L 231.210938 205.808594 C 230.566406 206.671875 230.027344 207.40625 229.589844 207.996094 Z M 224.136719 216.121094 L 222.785156 215.304688 C 223.503906 214.113281 224.265625 212.914062 225.042969 211.738281 L 226.363281 212.609375 C 225.59375 213.765625 224.84375 214.945312 224.136719 216.117188 Z M 231.855469 192.449219 C 231.355469 191.113281 230.917969 189.753906 230.515625 188.410156 L 232.035156 187.972656 C 232.414062 189.273438 232.851562 190.597656 233.335938 191.894531 Z M 220.125 223.402344 L 218.714844 222.699219 C 219.335938 221.441406 219.996094 220.183594 220.671875 218.957031 L 222.058594 219.71875 C 221.386719 220.925781 220.738281 222.167969 220.125 223.402344 Z M 207.125 254.21875 C 207.558594 253.03125 208.027344 251.757812 208.5 250.289062 L 209.996094 250.789062 C 209.507812 252.261719 209.058594 253.5625 208.605469 254.765625 Z M 205.246094 262.542969 L 203.835938 261.820312 C 204.445312 260.628906 205.011719 259.402344 205.589844 258.074219 L 207.046875 258.699219 C 206.464844 260.0625 205.875 261.316406 205.246094 262.542969 Z M 209.789062 246.3125 C 209.949219 245.804688 210.109375 245.292969 210.273438 244.78125 C 210.53125 243.96875 210.792969 243.144531 211.058594 242.316406 L 212.5625 242.785156 C 212.296875 243.613281 212.039062 244.429688 211.78125 245.25 C 211.621094 245.761719 211.460938 246.273438 211.296875 246.78125 Z M 216.722656 230.992188 L 215.253906 230.402344 C 215.785156 229.082031 216.339844 227.777344 216.898438 226.515625 L 218.34375 227.164062 C 217.792969 228.402344 217.246094 229.691406 216.722656 230.992188 Z M 212.363281 238.316406 C 212.832031 236.90625 213.300781 235.59375 213.75 234.34375 L 215.234375 234.882812 C 214.785156 236.125 214.332031 237.414062 213.859375 238.824219 Z M 200.753906 269.765625 L 199.488281 268.828125 C 200.304688 267.738281 201.085938 266.59375 201.8125 265.425781 L 203.15625 266.257812 C 202.40625 267.453125 201.597656 268.640625 200.753906 269.765625 Z M 195.097656 276.113281 L 194.007812 274.96875 C 195.015625 274.007812 195.980469 273.007812 196.878906 272.003906 L 198.054688 273.058594 C 197.132812 274.097656 196.136719 275.125 195.105469 276.113281 Z M 229.488281 184.277344 C 229.277344 183.261719 229.101562 182.234375 228.957031 181.222656 C 228.902344 180.839844 228.851562 180.457031 228.808594 180.074219 L 230.378906 179.890625 C 230.421875 180.257812 230.472656 180.632812 230.523438 181 C 230.664062 181.980469 230.835938 182.972656 231.039062 183.960938 Z M 244.113281 137.789062 L 242.886719 136.789062 C 243.472656 136.074219 244.0625 135.390625 244.664062 134.707031 L 245.839844 135.757812 C 245.25 136.425781 244.6875 137.082031 244.113281 137.789062 Z M 188.523438 281.496094 L 187.613281 280.203125 C 188.742188 279.410156 189.847656 278.570312 190.90625 277.703125 L 191.90625 278.925781 C 190.824219 279.816406 189.699219 280.683594 188.523438 281.496094 Z M 228.492188 175.828125 C 228.453125 174.417969 228.46875 172.984375 228.550781 171.570312 L 230.128906 171.65625 C 230.050781 173.027344 230.035156 174.414062 230.074219 175.78125 Z M 239.28125 144.519531 L 237.941406 143.675781 C 238.691406 142.484375 239.488281 141.300781 240.308594 140.152344 L 241.59375 141.074219 C 240.792969 142.199219 240.015625 143.355469 239.28125 144.519531 Z M 228.96875 167.332031 C 229.164062 165.941406 229.417969 164.535156 229.730469 163.148438 L 231.277344 163.492188 C 230.972656 164.839844 230.722656 166.207031 230.535156 167.550781 Z M 235.3125 151.785156 L 233.878906 151.117188 C 234.46875 149.851562 235.117188 148.578125 235.796875 147.335938 L 237.1875 148.09375 C 236.515625 149.304688 235.882812 150.554688 235.308594 151.785156 Z M 230.824219 159.035156 C 231.230469 157.703125 231.703125 156.339844 232.214844 155.023438 L 233.6875 155.59375 C 233.195312 156.875 232.734375 158.199219 232.335938 159.5 Z M 181.261719 285.875 L 180.539062 284.464844 C 181.769531 283.832031 182.988281 283.15625 184.152344 282.457031 L 184.972656 283.808594 C 183.773438 284.535156 182.523438 285.226562 181.261719 285.875 Z M 173.484375 289.25 L 172.945312 287.761719 C 174.253906 287.292969 175.546875 286.777344 176.796875 286.234375 L 177.425781 287.683594 C 176.144531 288.238281 174.820312 288.765625 173.484375 289.25 Z M 165.371094 291.683594 L 165 290.144531 C 166.355469 289.820312 167.703125 289.453125 169.003906 289.0625 L 169.460938 290.582031 C 168.128906 290.976562 166.753906 291.347656 165.371094 291.683594 Z M 157.066406 293.273438 L 156.832031 291.707031 C 158.214844 291.507812 159.59375 291.277344 160.929688 291.023438 L 161.226562 292.578125 C 159.875 292.835938 158.472656 293.070312 157.066406 293.273438 Z M 148.660156 294.125 L 148.5625 292.546875 C 149.972656 292.460938 151.359375 292.34375 152.710938 292.207031 L 152.867188 293.78125 C 151.5 293.921875 150.085938 294.035156 148.660156 294.125 Z M 148.660156 294.125 " fill-opacity="1" fill-rule="nonzero"/></g><g clip-path="url(#107b71752e)"><path fill="#060404" d="M 240.660156 108.542969 C 240.660156 115.917969 246.066406 122.410156 248.265625 124.757812 C 248.386719 124.886719 248.527344 124.984375 248.6875 125.054688 C 248.851562 125.125 249.019531 125.160156 249.195312 125.160156 C 249.371094 125.160156 249.539062 125.125 249.699219 125.054688 C 249.859375 124.984375 250.003906 124.886719 250.121094 124.757812 C 252.328125 122.410156 257.699219 115.90625 257.695312 108.53125 C 257.695312 107.96875 257.636719 107.417969 257.527344 106.867188 C 257.417969 106.320312 257.257812 105.789062 257.042969 105.273438 C 256.828125 104.753906 256.566406 104.265625 256.253906 103.800781 C 255.941406 103.335938 255.589844 102.90625 255.195312 102.511719 C 254.796875 102.117188 254.367188 101.761719 253.902344 101.453125 C 253.4375 101.140625 252.945312 100.878906 252.429688 100.667969 C 251.914062 100.453125 251.378906 100.292969 250.832031 100.183594 C 250.28125 100.074219 249.730469 100.019531 249.167969 100.023438 C 248.609375 100.023438 248.058594 100.078125 247.507812 100.1875 C 246.960938 100.296875 246.425781 100.457031 245.910156 100.671875 C 245.394531 100.886719 244.90625 101.152344 244.441406 101.460938 C 243.976562 101.773438 243.546875 102.125 243.148438 102.523438 C 242.753906 102.917969 242.402344 103.347656 242.09375 103.8125 C 241.78125 104.277344 241.519531 104.769531 241.308594 105.285156 C 241.09375 105.804688 240.933594 106.335938 240.824219 106.882812 C 240.714844 107.433594 240.660156 107.988281 240.660156 108.546875 Z M 244.539062 108.542969 C 244.539062 108.238281 244.566406 107.9375 244.625 107.636719 C 244.6875 107.339844 244.773438 107.050781 244.890625 106.769531 C 245.003906 106.484375 245.148438 106.21875 245.316406 105.964844 C 245.484375 105.710938 245.679688 105.476562 245.894531 105.261719 C 246.109375 105.046875 246.34375 104.851562 246.59375 104.683594 C 246.847656 104.515625 247.117188 104.371094 247.398438 104.253906 C 247.679688 104.136719 247.96875 104.046875 248.265625 103.988281 C 248.566406 103.929688 248.867188 103.898438 249.171875 103.898438 C 249.476562 103.898438 249.777344 103.925781 250.078125 103.984375 C 250.375 104.046875 250.667969 104.132812 250.949219 104.25 C 251.230469 104.367188 251.496094 104.507812 251.75 104.675781 C 252.003906 104.847656 252.238281 105.039062 252.453125 105.253906 C 252.671875 105.46875 252.863281 105.703125 253.03125 105.957031 C 253.203125 106.210938 253.34375 106.476562 253.460938 106.757812 C 253.578125 107.039062 253.667969 107.328125 253.726562 107.628906 C 253.785156 107.925781 253.816406 108.226562 253.816406 108.53125 C 253.816406 108.835938 253.789062 109.140625 253.726562 109.4375 C 253.667969 109.738281 253.582031 110.027344 253.464844 110.308594 C 253.347656 110.589844 253.207031 110.859375 253.035156 111.109375 C 252.867188 111.363281 252.675781 111.597656 252.460938 111.816406 C 252.246094 112.03125 252.011719 112.222656 251.757812 112.390625 C 251.503906 112.5625 251.238281 112.703125 250.957031 112.820312 C 250.675781 112.9375 250.382812 113.027344 250.085938 113.085938 C 249.785156 113.144531 249.484375 113.175781 249.179688 113.175781 C 248.875 113.171875 248.578125 113.140625 248.28125 113.078125 C 247.984375 113.015625 247.695312 112.925781 247.414062 112.808594 C 247.136719 112.691406 246.871094 112.546875 246.617188 112.378906 C 246.367188 112.207031 246.132812 112.015625 245.917969 111.804688 C 245.703125 111.589844 245.511719 111.355469 245.34375 111.105469 C 245.171875 110.851562 245.027344 110.585938 244.910156 110.308594 C 244.792969 110.027344 244.703125 109.742188 244.640625 109.445312 C 244.578125 109.148438 244.542969 108.847656 244.539062 108.542969 Z M 244.539062 108.542969 " fill-opacity="1" fill-rule="nonzero"/></g><path fill="#060404" d="M 252.25 130.652344 C 252.25 131.054688 252.171875 131.445312 252.015625 131.820312 C 251.863281 132.191406 251.640625 132.523438 251.355469 132.808594 C 251.070312 133.09375 250.738281 133.316406 250.367188 133.46875 C 249.992188 133.625 249.601562 133.703125 249.199219 133.703125 C 248.792969 133.703125 248.40625 133.625 248.03125 133.46875 C 247.65625 133.316406 247.328125 133.09375 247.042969 132.808594 C 246.757812 132.523438 246.535156 132.191406 246.382812 131.820312 C 246.226562 131.445312 246.148438 131.054688 246.148438 130.652344 C 246.148438 130.246094 246.226562 129.859375 246.382812 129.484375 C 246.535156 129.109375 246.757812 128.78125 247.042969 128.496094 C 247.328125 128.210938 247.65625 127.988281 248.03125 127.832031 C 248.40625 127.679688 248.792969 127.601562 249.199219 127.601562 C 249.601562 127.601562 249.992188 127.679688 250.367188 127.832031 C 250.738281 127.988281 251.070312 128.210938 251.355469 128.496094 C 251.640625 128.78125 251.863281 129.109375 252.015625 129.484375 C 252.171875 129.859375 252.25 130.246094 252.25 130.652344 Z M 252.25 130.652344 " fill-opacity="1" fill-rule="nonzero"/><g clip-path="url(#ce68ff343b)"><path fill="#060404" d="M 109.664062 291.039062 L 109.664062 294.226562 C 109.664062 294.226562 109.664062 294.226562 109.664062 294.242188 L 109.664062 294.277344 C 109.671875 294.316406 109.683594 294.355469 109.695312 294.394531 L 109.695312 294.488281 L 109.71875 294.519531 L 109.71875 294.535156 L 109.730469 294.554688 L 109.761719 294.585938 L 109.777344 294.597656 L 109.796875 294.613281 L 109.824219 294.632812 L 109.839844 294.632812 L 109.867188 294.644531 L 109.902344 294.644531 L 109.972656 294.671875 L 110.070312 294.691406 L 112.253906 294.691406 C 112.253906 295.125 112.335938 295.539062 112.5 295.9375 C 112.664062 296.335938 112.898438 296.6875 113.203125 296.992188 C 113.507812 297.296875 113.859375 297.53125 114.257812 297.695312 C 114.65625 297.859375 115.070312 297.941406 115.503906 297.941406 C 115.933594 297.941406 116.347656 297.859375 116.746094 297.695312 C 117.144531 297.53125 117.496094 297.296875 117.800781 296.992188 C 118.105469 296.6875 118.339844 296.335938 118.503906 295.9375 C 118.671875 295.539062 118.753906 295.125 118.753906 294.691406 L 134.496094 294.691406 C 134.496094 295.125 134.578125 295.539062 134.746094 295.9375 C 134.910156 296.335938 135.144531 296.6875 135.449219 296.992188 C 135.753906 297.296875 136.105469 297.53125 136.503906 297.695312 C 136.902344 297.859375 137.316406 297.941406 137.746094 297.941406 C 138.179688 297.941406 138.59375 297.859375 138.992188 297.695312 C 139.390625 297.53125 139.742188 297.296875 140.046875 296.992188 C 140.351562 296.6875 140.585938 296.335938 140.75 295.9375 C 140.914062 295.539062 140.996094 295.125 140.996094 294.691406 L 143.9375 294.691406 C 143.976562 294.691406 144.011719 294.6875 144.046875 294.671875 L 144.105469 294.671875 L 144.128906 294.648438 L 144.144531 294.621094 C 144.152344 294.605469 144.160156 294.589844 144.167969 294.570312 C 144.167969 294.570312 144.167969 294.570312 144.167969 294.558594 C 144.167969 294.550781 144.167969 294.542969 144.167969 294.535156 L 144.167969 292.890625 C 144.167969 292.890625 144.167969 292.878906 144.167969 292.875 C 144.167969 292.867188 144.167969 292.863281 144.167969 292.859375 L 144.167969 292.835938 C 144.167969 292.832031 144.167969 292.828125 144.167969 292.820312 C 144.167969 292.8125 144.167969 292.804688 144.167969 292.796875 C 144.167969 292.796875 144.167969 292.796875 144.167969 292.785156 L 144.167969 292.757812 C 144.15625 292.738281 144.144531 292.726562 144.128906 292.710938 L 144.117188 292.699219 L 143.21875 292.699219 L 143.21875 288.941406 L 142.175781 284.421875 C 142.050781 283.996094 141.769531 283.738281 141.332031 283.65625 C 136.535156 282.757812 131.707031 282.511719 126.847656 282.917969 C 125.535156 283.027344 124.304688 283.402344 123.15625 284.042969 C 122.617188 284.34375 122.054688 284.679688 121.480469 285.054688 C 120.148438 285.929688 118.902344 286.917969 117.746094 288.019531 C 115.195312 288.289062 112.742188 288.933594 110.386719 289.949219 C 110.078125 290.082031 109.867188 290.304688 109.746094 290.617188 C 109.738281 290.628906 109.734375 290.644531 109.730469 290.65625 C 109.6875 290.785156 109.664062 290.914062 109.664062 291.046875 Z M 113.976562 294.773438 C 114 294.574219 114.058594 294.386719 114.152344 294.207031 C 114.246094 294.03125 114.367188 293.875 114.519531 293.742188 C 114.671875 293.605469 114.839844 293.503906 115.027344 293.433594 C 115.214844 293.363281 115.410156 293.324219 115.609375 293.324219 C 115.8125 293.324219 116.007812 293.363281 116.195312 293.433594 C 116.382812 293.503906 116.550781 293.605469 116.703125 293.742188 C 116.851562 293.875 116.976562 294.03125 117.066406 294.207031 C 117.160156 294.386719 117.21875 294.574219 117.246094 294.773438 C 117.21875 294.972656 117.160156 295.164062 117.066406 295.339844 C 116.976562 295.519531 116.851562 295.675781 116.703125 295.808594 C 116.550781 295.941406 116.382812 296.042969 116.195312 296.117188 C 116.007812 296.1875 115.8125 296.222656 115.609375 296.222656 C 115.410156 296.222656 115.214844 296.1875 115.027344 296.117188 C 114.839844 296.042969 114.671875 295.941406 114.519531 295.808594 C 114.367188 295.675781 114.246094 295.519531 114.152344 295.339844 C 114.058594 295.164062 114 294.972656 113.976562 294.773438 Z M 136.230469 294.773438 C 136.253906 294.574219 136.3125 294.386719 136.40625 294.207031 C 136.5 294.03125 136.621094 293.875 136.769531 293.742188 C 136.921875 293.605469 137.089844 293.503906 137.277344 293.433594 C 137.464844 293.363281 137.660156 293.324219 137.863281 293.324219 C 138.0625 293.324219 138.257812 293.363281 138.445312 293.433594 C 138.632812 293.503906 138.804688 293.605469 138.953125 293.742188 C 139.105469 293.875 139.226562 294.03125 139.320312 294.207031 C 139.414062 294.386719 139.472656 294.574219 139.496094 294.773438 C 139.472656 294.972656 139.414062 295.164062 139.320312 295.339844 C 139.226562 295.519531 139.105469 295.675781 138.953125 295.808594 C 138.804688 295.941406 138.632812 296.042969 138.445312 296.117188 C 138.257812 296.1875 138.0625 296.222656 137.863281 296.222656 C 137.660156 296.222656 137.464844 296.1875 137.277344 296.117188 C 137.089844 296.042969 136.921875 295.941406 136.769531 295.808594 C 136.621094 295.675781 136.5 295.519531 136.40625 295.339844 C 136.3125 295.164062 136.253906 294.972656 136.230469 294.773438 Z M 126.988281 284.585938 C 127.402344 284.550781 127.8125 284.523438 128.230469 284.496094 L 128.230469 288.746094 L 119.421875 288.746094 C 120.359375 287.90625 121.351562 287.140625 122.402344 286.453125 C 122.734375 286.234375 123.074219 286.023438 123.421875 285.816406 C 123.605469 285.707031 123.789062 285.605469 123.972656 285.5 L 124.144531 285.410156 C 124.347656 285.304688 124.554688 285.207031 124.765625 285.121094 C 124.855469 285.082031 124.949219 285.046875 125.039062 285.011719 C 125.667969 284.78125 126.316406 284.640625 126.988281 284.585938 Z M 134.019531 284.46875 L 134.613281 284.503906 L 134.613281 288.746094 L 129.105469 288.746094 L 129.105469 284.453125 L 131.546875 284.453125 C 132.359375 284.40625 133.199219 284.421875 134.019531 284.46875 Z M 141.566406 288.746094 L 135.488281 288.746094 L 135.488281 284.566406 C 135.65625 284.566406 135.824219 284.59375 135.992188 284.609375 C 136.355469 284.640625 136.71875 284.675781 137.078125 284.71875 C 137.382812 284.75 137.683594 284.785156 137.984375 284.824219 L 138.371094 284.875 C 139.042969 284.964844 139.710938 285.066406 140.371094 285.183594 C 140.558594 285.214844 140.671875 285.324219 140.722656 285.503906 Z M 141.566406 288.746094 " fill-opacity="1" fill-rule="nonzero"/></g><g fill="#060404" fill-opacity="1"><g transform="translate(75.311476, 263.769092)"><g><path d="M 11.25 -5.359375 L 13.453125 -13.015625 L 11.859375 -18.078125 L 10.359375 -18.078125 L 10.359375 -18.578125 L 18.578125 -18.578125 L 18.578125 -18.078125 L 17.015625 -18.078125 L 20.96875 -5.515625 L 24.15625 -18.078125 L 21.46875 -18.078125 L 21.46875 -18.578125 L 26.78125 -18.578125 L 26.78125 -18.078125 L 25.03125 -18.078125 L 20.15625 0.265625 L 17.78125 0.265625 L 13.859375 -11.734375 L 10.40625 0.265625 L 8.09375 0.265625 L 1.40625 -18.078125 L 0.15625 -18.078125 L 0.15625 -18.578125 L 8.78125 -18.578125 L 8.78125 -18.078125 L 6.921875 -18.078125 Z M 11.25 -5.359375 "/></g></g></g><g fill="#060404" fill-opacity="1"><g transform="translate(102.242702, 263.769092)"><g><path d="M 0.65625 -18.578125 L 8.765625 -18.578125 L 8.765625 -18.078125 L 7.296875 -18.078125 L 7.296875 -0.5 L 8.765625 -0.5 L 8.765625 0 L 0.65625 0 L 0.65625 -0.5 L 2.125 -0.5 L 2.125 -18.078125 L 0.65625 -18.078125 Z M 0.65625 -18.578125 "/></g></g></g><g fill="#060404" fill-opacity="1"><g transform="translate(111.661998, 263.769092)"><g><path d="M 15.65625 -18.078125 L 15.65625 0 L 11.953125 0 L 2.84375 -17.171875 L 2.84375 -0.5 L 4.296875 -0.5 L 4.296875 0 L 0.65625 0 L 0.65625 -0.5 L 2.125 -0.5 L 2.125 -18.078125 L 0.65625 -18.078125 L 0.65625 -18.578125 L 7.984375 -18.578125 L 14.953125 -5.25 L 14.953125 -18.078125 L 13.484375 -18.078125 L 13.484375 -18.578125 L 17.125 -18.578125 L 17.125 -18.078125 Z M 15.65625 -18.078125 "/></g></g></g><g fill="#060404" fill-opacity="1"><g transform="translate(129.439265, 263.769092)"><g><path d="M 18.953125 -9.609375 C 18.953125 -5.960938 17.925781 -3.421875 15.875 -1.984375 C 13.976562 -0.660156 11.375 0 8.0625 0 L 0.5625 0 L 0.5625 -0.5 L 2.3125 -0.5 L 2.3125 -18.078125 L 0.5625 -18.078125 L 0.5625 -18.578125 L 8.765625 -18.578125 C 12.160156 -18.578125 14.707031 -17.882812 16.40625 -16.5 C 18.101562 -15.113281 18.953125 -12.816406 18.953125 -9.609375 Z M 7.484375 -0.5 L 8.5 -0.5 C 10.28125 -0.5 11.554688 -1.128906 12.328125 -2.390625 C 13.097656 -3.660156 13.484375 -5.785156 13.484375 -8.765625 L 13.484375 -10.296875 C 13.484375 -14.273438 12.722656 -16.675781 11.203125 -17.5 C 10.472656 -17.882812 9.445312 -18.078125 8.125 -18.078125 L 7.484375 -18.078125 Z M 7.484375 -0.5 "/></g></g></g><g fill="#060404" fill-opacity="1"><g transform="translate(149.474971, 263.769092)"><g/></g></g><path stroke-linecap="butt" transform="matrix(0.768036, 0, 0, 0.768036, 158.16058, 240.392269)" fill="none" stroke-linejoin="miter" d="M 12.800969 25.377116 L 18.115864 12.280606 C 18.415939 11.53296 18.624466 10.948068 18.741445 10.525928 C 18.868595 10.103788 18.929628 9.722336 18.929628 9.376487 C 18.929628 8.837368 18.761789 8.455916 18.426111 8.232131 C 18.09552 8.013432 17.480111 7.90154 16.574799 7.90154 L 16.574799 6.752098 L 23.908844 6.752098 L 23.908844 7.90154 C 23.446016 7.962572 23.049306 8.043948 22.718715 8.145669 C 22.388123 8.242303 22.093134 8.384712 21.838833 8.567809 C 21.589618 8.74582 21.365833 8.984863 21.17765 9.274766 C 20.984381 9.564669 20.801284 9.920691 20.623273 10.347917 L 12.439862 30.300387 L 11.381969 30.300387 L 3.590181 11.492272 C 3.330794 10.887035 3.071407 10.363175 2.822192 9.920691 C 2.572976 9.478207 2.293245 9.117099 1.988084 8.837368 C 1.688008 8.552551 1.347245 8.344024 0.965793 8.206701 C 0.584341 8.064293 0.131685 7.972744 -0.392175 7.932056 L -0.392175 6.752098 L 9.44928 6.752098 L 9.44928 7.932056 C 8.884731 7.932056 8.426989 7.957486 8.070968 8.008346 C 7.720032 8.05412 7.445387 8.135497 7.247032 8.247389 C 7.043591 8.359282 6.901182 8.491518 6.819806 8.654271 C 6.73843 8.817024 6.697741 9.000121 6.697741 9.198476 C 6.697741 9.478207 6.748602 9.808799 6.845236 10.180078 C 6.952043 10.551358 7.145311 11.090476 7.430129 11.792348 Z M 31.517535 24.293793 C 31.517535 25.300826 31.558224 26.099331 31.634514 26.684224 C 31.71589 27.264031 31.873557 27.716687 32.107514 28.037106 C 32.336385 28.357526 32.666977 28.571139 33.099289 28.672859 C 33.531601 28.769494 34.101235 28.830526 34.803106 28.85087 L 34.803106 30.000311 L 25.022684 30.000311 L 25.022684 28.85087 C 25.729641 28.830526 26.299275 28.764408 26.731587 28.657601 C 27.163899 28.545709 27.504663 28.337182 27.743706 28.037106 C 27.982749 27.737031 28.145502 27.309805 28.221792 26.755428 C 28.303169 26.201052 28.348943 25.453406 28.348943 24.507406 L 28.348943 12.25009 C 28.348943 11.40581 28.308255 10.703939 28.23705 10.149562 C 28.165846 9.595186 28.028523 9.157788 27.81491 8.837368 C 27.606383 8.516949 27.296136 8.288078 26.89434 8.160927 C 26.492544 8.02869 25.968684 7.942228 25.327845 7.90154 L 25.327845 6.752098 L 34.503031 6.752098 L 34.503031 7.90154 C 33.857106 7.921884 33.338332 8.00326 32.946708 8.145669 C 32.56017 8.282992 32.260095 8.522035 32.046482 8.852626 C 31.837955 9.183218 31.695546 9.64096 31.619256 10.225852 C 31.553138 10.810745 31.517535 11.553305 31.517535 12.458617 Z M 50.930887 21.577857 L 42.864454 21.577857 C 42.528776 22.401792 42.233787 23.129094 41.989657 23.764847 C 41.745528 24.4006 41.552259 24.94989 41.399679 25.417804 C 41.252184 25.875546 41.145378 26.272256 41.079259 26.592676 C 41.023313 26.913095 40.992797 27.172482 40.992797 27.375923 C 40.992797 27.935386 41.175894 28.321924 41.537001 28.535537 C 41.903195 28.744063 42.508432 28.85087 43.352712 28.85087 L 43.352712 30.000311 L 36.008494 30.000311 L 36.008494 28.85087 C 36.476408 28.789838 36.873118 28.713547 37.20371 28.611827 C 37.539387 28.510106 37.82929 28.367698 38.083592 28.184601 C 38.332807 28.00659 38.551506 27.767547 38.744775 27.477644 C 38.938043 27.18774 39.12114 26.831719 39.304237 26.409579 L 47.157057 6.752098 L 48.453993 6.752098 L 55.304867 23.780105 C 55.767695 24.909202 56.169491 25.809428 56.510254 26.485869 C 56.851018 27.157224 57.181609 27.665827 57.502029 28.011676 C 57.827534 28.347354 58.17847 28.571139 58.54975 28.672859 C 58.921029 28.769494 59.368599 28.820354 59.89246 28.820354 L 59.89246 30.000311 L 50.051005 30.000311 L 50.051005 28.820354 C 51.119069 28.820354 51.851457 28.718633 52.253253 28.520278 C 52.660134 28.316838 52.858489 27.986246 52.858489 27.523418 C 52.858489 27.319977 52.848317 27.13688 52.827973 26.969041 C 52.812715 26.801203 52.772027 26.61302 52.721167 26.409579 C 52.670307 26.211224 52.599102 25.982353 52.507554 25.733138 C 52.416005 25.478836 52.304113 25.178761 52.16679 24.843084 Z M 43.46969 20.062222 L 50.356166 20.062222 L 46.99939 11.161681 Z M 72.419335 30.300387 C 70.710431 30.300387 69.169366 30.030827 67.801226 29.491709 C 66.433086 28.947504 65.268386 28.174429 64.296956 27.177568 C 63.335698 26.180708 62.593138 24.970234 62.07945 23.541062 C 61.570847 22.111889 61.31146 20.519964 61.31146 18.765286 C 61.31146 16.939403 61.591192 15.271188 62.15574 13.760639 C 62.720289 12.25009 63.508622 10.948068 64.525827 9.864745 C 65.543032 8.776336 66.758591 7.937142 68.172506 7.342077 C 69.596592 6.747012 71.163087 6.452023 72.877077 6.452023 C 74.082465 6.452023 75.216648 6.624948 76.284713 6.965711 C 77.347692 7.306475 78.507305 7.860852 79.753381 8.623755 L 80.389134 6.752098 L 81.447027 6.752098 L 81.060489 13.69452 L 79.605886 13.69452 C 79.605886 12.707832 79.417703 11.858466 79.046424 11.146423 C 78.675144 10.434379 78.1818 9.844401 77.581649 9.386659 C 76.981498 8.918744 76.294885 8.572895 75.516723 8.354196 C 74.738562 8.130411 73.950228 8.018518 73.141551 8.018518 C 71.920905 8.018518 70.822324 8.262647 69.855979 8.750906 C 68.889635 9.234078 68.070785 9.925777 67.409602 10.831089 C 66.743333 11.731315 66.234731 12.840068 65.883795 14.152262 C 65.53286 15.45937 65.359935 16.939403 65.359935 18.592361 C 65.359935 21.827072 66.03129 24.319223 67.379086 26.063729 C 68.726882 27.803149 70.679915 28.672859 73.238185 28.672859 C 74.199443 28.672859 75.064067 28.555881 75.832057 28.32701 C 76.600046 28.098139 77.245971 27.782805 77.780004 27.391181 C 78.314036 26.999557 78.715832 26.546901 78.985391 26.033213 C 79.260037 25.519525 79.392273 24.980406 79.392273 24.410772 C 79.392273 23.246072 79.158316 22.457739 78.685316 22.045771 C 78.212316 21.633803 77.444326 21.430362 76.376261 21.430362 L 76.376261 20.275835 L 84.951297 20.275835 L 84.951297 21.430362 C 84.468125 21.430362 84.066329 21.47105 83.740823 21.552426 C 83.420404 21.633803 83.166103 21.776211 82.972834 21.989824 C 82.784651 22.198351 82.652414 22.478083 82.576124 22.818846 C 82.510006 23.15961 82.474403 23.591922 82.474403 24.110696 L 82.474403 27.492902 C 82.092952 27.492902 81.742016 27.50816 81.426683 27.538676 C 81.116435 27.569192 80.79093 27.640396 80.44508 27.752289 C 80.109403 27.859095 79.733037 28.011676 79.321069 28.199859 C 78.909101 28.393128 78.415757 28.652515 77.851208 28.978021 C 77.149337 29.379816 76.340659 29.700236 75.420089 29.939279 C 74.504605 30.183408 73.507744 30.300387 72.419335 30.300387 Z M 93.612795 17.224221 C 94.696118 17.224221 95.606516 17.163188 96.338903 17.036038 C 97.076376 16.903801 97.661269 16.695274 98.093581 16.415543 C 98.525893 16.130726 98.836141 15.769618 99.029409 15.327134 C 99.222678 14.88465 99.319313 14.360789 99.319313 13.755553 L 100.37212 13.755553 L 100.37212 22.005083 L 99.319313 22.005083 C 99.319313 21.399846 99.23285 20.875985 99.059926 20.433501 C 98.887001 19.985931 98.586925 19.619738 98.154613 19.329834 C 97.722301 19.039931 97.137409 18.816146 96.399935 18.663565 C 95.667548 18.510984 94.736806 18.434694 93.612795 18.434694 L 93.612795 25.260137 C 93.612795 25.926407 93.689085 26.470611 93.846752 26.902923 C 94.009504 27.335235 94.289236 27.691257 94.680859 27.965902 C 95.072483 28.235461 95.591258 28.42873 96.237183 28.540623 C 96.878022 28.647429 97.676527 28.703375 98.622528 28.703375 C 99.690592 28.703375 100.595905 28.627085 101.338464 28.474504 C 102.086109 28.321924 102.706604 28.067622 103.210121 27.706515 C 103.713637 27.345407 104.120519 26.867321 104.415508 26.272256 C 104.72067 25.677191 104.974971 24.934632 105.178412 24.049664 L 106.317681 24.049664 L 105.870111 30.000311 L 87.117943 30.000311 L 87.117943 28.85087 C 87.8249 28.830526 88.394535 28.769494 88.826847 28.672859 C 89.259159 28.571139 89.599922 28.398214 89.838965 28.159171 C 90.078008 27.915042 90.240761 27.574278 90.317051 27.131794 C 90.403514 26.68931 90.444202 26.114589 90.444202 25.407632 L 90.444202 11.344778 C 90.444202 10.63782 90.4086 10.068186 90.33231 9.635874 C 90.266191 9.203562 90.123783 8.862798 89.91017 8.608497 C 89.701643 8.359282 89.396481 8.191443 88.989599 8.099895 C 88.587803 8.008346 88.063943 7.942228 87.423104 7.90154 L 87.423104 6.752098 L 104.87325 6.752098 L 105.147896 12.066993 L 104.084917 12.066993 C 103.967938 11.263401 103.769583 10.602218 103.494938 10.093616 C 103.225379 9.574841 102.854099 9.16796 102.386185 8.867884 C 101.913185 8.562723 101.313034 8.354196 100.585733 8.232131 C 99.863517 8.110067 98.988721 8.049034 97.961345 8.049034 L 94.126483 8.049034 C 93.785719 8.049034 93.612795 8.221959 93.612795 8.567809 Z M 128.635151 30.300387 L 114.292566 11.40581 L 114.170501 11.40581 L 114.170501 24.293793 C 114.170501 25.300826 114.206103 26.099331 114.277307 26.684224 C 114.343426 27.264031 114.485834 27.716687 114.694361 28.037106 C 114.907974 28.357526 115.20805 28.571139 115.60476 28.672859 C 115.996383 28.769494 116.515158 28.830526 117.155997 28.85087 L 117.155997 30.000311 L 109.033617 30.000311 L 109.033617 28.85087 C 109.740575 28.830526 110.315295 28.764408 110.747607 28.657601 C 111.179919 28.545709 111.515597 28.337182 111.75464 28.037106 C 111.993683 27.737031 112.156436 27.309805 112.232726 26.755428 C 112.319188 26.201052 112.359877 25.453406 112.359877 24.507406 L 112.359877 12.25009 C 112.359877 11.40581 112.324275 10.703939 112.247984 10.149562 C 112.181866 9.595186 112.039457 9.157788 111.83093 8.837368 C 111.617317 8.516949 111.312156 8.288078 110.905274 8.160927 C 110.503478 8.02869 109.979618 7.942228 109.338779 7.90154 L 109.338779 6.752098 L 115.314856 6.752098 L 128.508001 24.354825 L 128.635151 24.354825 L 128.635151 12.458617 C 128.635151 11.477014 128.594463 10.688681 128.523259 10.093616 C 128.452055 9.498551 128.314732 9.040809 128.101119 8.72039 C 127.892592 8.394884 127.587431 8.186357 127.195807 8.089723 C 126.804183 7.982916 126.285409 7.921884 125.639484 7.90154 L 125.639484 6.752098 L 133.761863 6.752098 L 133.761863 7.90154 C 133.059992 7.921884 132.490357 7.988002 132.052959 8.099895 C 131.620647 8.211787 131.28497 8.415228 131.045926 8.72039 C 130.801797 9.020465 130.639045 9.452777 130.557668 10.017325 C 130.481378 10.576788 130.44069 11.324433 130.44069 12.25009 L 130.44069 30.300387 Z M 136.660896 22.900223 L 137.774735 22.900223 C 137.917144 23.810621 138.186703 24.629471 138.578327 25.356772 C 138.969951 26.078987 139.463295 26.68931 140.053274 27.192826 C 140.648339 27.691257 141.334952 28.08288 142.108027 28.357526 C 142.886189 28.627085 143.725383 28.759322 144.630695 28.759322 C 146.1209 28.759322 147.295771 28.408386 148.160395 27.706515 C 149.025019 26.999557 149.457331 26.043385 149.457331 24.843084 C 149.457331 24.334481 149.370869 23.871653 149.197944 23.449513 C 149.035191 23.027373 148.750374 22.615405 148.343492 22.223782 C 147.941696 21.832158 147.402578 21.44562 146.72105 21.069254 C 146.049695 20.682716 145.200329 20.270749 144.172953 19.828265 C 142.931963 19.28406 141.884242 18.7602 141.034876 18.256683 C 140.190596 17.753167 139.514155 17.229307 139.015725 16.690188 C 138.512209 16.140898 138.156187 15.561091 137.942574 14.950768 C 137.734047 14.335359 137.627241 13.633488 137.627241 12.85024 C 137.627241 11.924584 137.795079 11.070132 138.120585 10.291971 C 138.456263 9.503637 138.924177 8.82211 139.529413 8.247389 C 140.13465 7.672669 140.846693 7.230185 141.665543 6.925023 C 142.494565 6.60969 143.399877 6.452023 144.386566 6.452023 C 145.271534 6.452023 146.09547 6.594432 146.863459 6.879249 C 147.631449 7.15898 148.404524 7.611636 149.187772 8.232131 L 149.976105 6.869077 L 150.667805 6.869077 L 150.998396 12.885843 L 149.884557 12.885843 C 149.401385 11.232885 148.699514 10.007153 147.784029 9.198476 C 146.868545 8.394884 145.769964 7.993088 144.473028 7.993088 C 143.252383 7.993088 142.275866 8.293164 141.548565 8.8984 C 140.826349 9.503637 140.465242 10.317401 140.465242 11.344778 C 140.465242 11.82795 140.546618 12.265348 140.699199 12.656972 C 140.861952 13.048595 141.126425 13.424961 141.492618 13.775897 C 141.853726 14.126832 142.326726 14.477768 142.906533 14.83379 C 143.491426 15.179639 144.213641 15.545833 145.078265 15.927285 C 146.56847 16.593554 147.809459 17.214049 148.796148 17.788769 C 149.782837 18.36349 150.566084 18.93821 151.145891 19.512931 C 151.730783 20.082566 152.142751 20.682716 152.381794 21.318469 C 152.63101 21.949136 152.753074 22.66118 152.753074 23.449513 C 152.753074 24.456546 152.549633 25.382202 152.147837 26.226482 C 151.746042 27.070762 151.181493 27.798063 150.454192 28.398214 C 149.731976 29.003451 148.867352 29.476451 147.86032 29.807042 C 146.853287 30.137634 145.744534 30.300387 144.544232 30.300387 C 143.389705 30.300387 142.357242 30.14272 141.436672 29.8223 C 140.526274 29.496795 139.595532 28.95259 138.654617 28.184601 L 137.805252 29.66972 L 137.113552 29.66972 Z M 136.660896 22.900223 " stroke="#f4b324" stroke-width="0.943625" stroke-opacity="1" stroke-miterlimit="4"/><g fill="#1c191a" fill-opacity="1"><g transform="translate(158.16058, 263.433355)"><g><path d="M 9.828125 -3.546875 L 13.90625 -13.609375 C 14.144531 -14.179688 14.304688 -14.628906 14.390625 -14.953125 C 14.484375 -15.273438 14.53125 -15.570312 14.53125 -15.84375 C 14.53125 -16.257812 14.398438 -16.550781 14.140625 -16.71875 C 13.890625 -16.882812 13.421875 -16.96875 12.734375 -16.96875 L 12.734375 -17.859375 L 18.359375 -17.859375 L 18.359375 -16.96875 C 18.003906 -16.925781 17.695312 -16.863281 17.4375 -16.78125 C 17.1875 -16.707031 16.960938 -16.597656 16.765625 -16.453125 C 16.578125 -16.316406 16.410156 -16.132812 16.265625 -15.90625 C 16.117188 -15.6875 15.976562 -15.414062 15.84375 -15.09375 L 9.546875 0.234375 L 8.734375 0.234375 L 2.765625 -14.21875 C 2.554688 -14.675781 2.351562 -15.078125 2.15625 -15.421875 C 1.96875 -15.765625 1.757812 -16.039062 1.53125 -16.25 C 1.300781 -16.46875 1.035156 -16.628906 0.734375 -16.734375 C 0.441406 -16.847656 0.0976562 -16.921875 -0.296875 -16.953125 L -0.296875 -17.859375 L 7.25 -17.859375 L 7.25 -16.953125 C 6.820312 -16.953125 6.472656 -16.929688 6.203125 -16.890625 C 5.929688 -16.847656 5.71875 -16.785156 5.5625 -16.703125 C 5.40625 -16.617188 5.296875 -16.515625 5.234375 -16.390625 C 5.171875 -16.265625 5.140625 -16.125 5.140625 -15.96875 C 5.140625 -15.757812 5.175781 -15.507812 5.25 -15.21875 C 5.332031 -14.9375 5.484375 -14.523438 5.703125 -13.984375 Z M 9.828125 -3.546875 "/></g></g></g><g fill="#1c191a" fill-opacity="1"><g transform="translate(176.337757, 263.433355)"><g><path d="M 6.03125 -4.375 C 6.03125 -3.601562 6.0625 -2.992188 6.125 -2.546875 C 6.1875 -2.097656 6.304688 -1.75 6.484375 -1.5 C 6.660156 -1.257812 6.914062 -1.097656 7.25 -1.015625 C 7.582031 -0.941406 8.019531 -0.894531 8.5625 -0.875 L 8.5625 0 L 1.046875 0 L 1.046875 -0.875 C 1.585938 -0.894531 2.023438 -0.945312 2.359375 -1.03125 C 2.691406 -1.113281 2.945312 -1.269531 3.125 -1.5 C 3.3125 -1.738281 3.4375 -2.066406 3.5 -2.484375 C 3.5625 -2.910156 3.59375 -3.488281 3.59375 -4.21875 L 3.59375 -13.640625 C 3.59375 -14.285156 3.566406 -14.820312 3.515625 -15.25 C 3.460938 -15.675781 3.351562 -16.007812 3.1875 -16.25 C 3.019531 -16.5 2.78125 -16.671875 2.46875 -16.765625 C 2.164062 -16.867188 1.769531 -16.9375 1.28125 -16.96875 L 1.28125 -17.859375 L 8.328125 -17.859375 L 8.328125 -16.96875 C 7.828125 -16.957031 7.425781 -16.894531 7.125 -16.78125 C 6.820312 -16.675781 6.585938 -16.492188 6.421875 -16.234375 C 6.265625 -15.984375 6.160156 -15.632812 6.109375 -15.1875 C 6.054688 -14.738281 6.03125 -14.164062 6.03125 -13.46875 Z M 6.03125 -4.375 "/></g></g></g><g fill="#1c191a" fill-opacity="1"><g transform="translate(185.959609, 263.433355)"><g><path d="M 11.3125 -6.46875 L 5.125 -6.46875 C 4.863281 -5.832031 4.640625 -5.269531 4.453125 -4.78125 C 4.265625 -4.300781 4.113281 -3.878906 4 -3.515625 C 3.882812 -3.160156 3.800781 -2.859375 3.75 -2.609375 C 3.707031 -2.367188 3.6875 -2.171875 3.6875 -2.015625 C 3.6875 -1.585938 3.820312 -1.289062 4.09375 -1.125 C 4.375 -0.957031 4.84375 -0.875 5.5 -0.875 L 5.5 0 L -0.140625 0 L -0.140625 -0.875 C 0.210938 -0.925781 0.515625 -0.988281 0.765625 -1.0625 C 1.023438 -1.144531 1.25 -1.253906 1.4375 -1.390625 C 1.632812 -1.523438 1.804688 -1.703125 1.953125 -1.921875 C 2.097656 -2.148438 2.242188 -2.429688 2.390625 -2.765625 L 8.421875 -17.859375 L 9.421875 -17.859375 L 14.671875 -4.78125 C 15.023438 -3.914062 15.332031 -3.222656 15.59375 -2.703125 C 15.863281 -2.179688 16.117188 -1.789062 16.359375 -1.53125 C 16.609375 -1.269531 16.875 -1.097656 17.15625 -1.015625 C 17.445312 -0.941406 17.796875 -0.90625 18.203125 -0.90625 L 18.203125 0 L 10.640625 0 L 10.640625 -0.90625 C 11.460938 -0.90625 12.023438 -0.984375 12.328125 -1.140625 C 12.640625 -1.296875 12.796875 -1.550781 12.796875 -1.90625 C 12.796875 -2.0625 12.785156 -2.203125 12.765625 -2.328125 C 12.753906 -2.460938 12.726562 -2.601562 12.6875 -2.75 C 12.65625 -2.90625 12.601562 -3.082031 12.53125 -3.28125 C 12.457031 -3.476562 12.367188 -3.707031 12.265625 -3.96875 Z M 5.59375 -7.625 L 10.875 -7.625 L 8.296875 -14.46875 Z M 5.59375 -7.625 "/></g></g></g><g fill="#1c191a" fill-opacity="1"><g transform="translate(203.858569, 263.433355)"><g><path d="M 9.921875 0.234375 C 8.609375 0.234375 7.425781 0.0234375 6.375 -0.390625 C 5.320312 -0.804688 4.425781 -1.394531 3.6875 -2.15625 C 2.945312 -2.925781 2.378906 -3.859375 1.984375 -4.953125 C 1.585938 -6.054688 1.390625 -7.28125 1.390625 -8.625 C 1.390625 -10.03125 1.601562 -11.3125 2.03125 -12.46875 C 2.46875 -13.632812 3.078125 -14.632812 3.859375 -15.46875 C 4.640625 -16.300781 5.570312 -16.945312 6.65625 -17.40625 C 7.75 -17.863281 8.953125 -18.09375 10.265625 -18.09375 C 11.191406 -18.09375 12.066406 -17.957031 12.890625 -17.6875 C 13.710938 -17.425781 14.601562 -17.003906 15.5625 -16.421875 L 16.046875 -17.859375 L 16.859375 -17.859375 L 16.5625 -12.515625 L 15.4375 -12.515625 C 15.4375 -13.273438 15.289062 -13.925781 15 -14.46875 C 14.71875 -15.019531 14.34375 -15.472656 13.875 -15.828125 C 13.414062 -16.191406 12.890625 -16.457031 12.296875 -16.625 C 11.703125 -16.789062 11.097656 -16.875 10.484375 -16.875 C 9.535156 -16.875 8.691406 -16.6875 7.953125 -16.3125 C 7.210938 -15.945312 6.585938 -15.414062 6.078125 -14.71875 C 5.566406 -14.03125 5.175781 -13.179688 4.90625 -12.171875 C 4.632812 -11.171875 4.5 -10.035156 4.5 -8.765625 C 4.5 -6.273438 5.015625 -4.359375 6.046875 -3.015625 C 7.085938 -1.679688 8.585938 -1.015625 10.546875 -1.015625 C 11.285156 -1.015625 11.945312 -1.101562 12.53125 -1.28125 C 13.125 -1.457031 13.625 -1.695312 14.03125 -2 C 14.445312 -2.300781 14.757812 -2.648438 14.96875 -3.046875 C 15.175781 -3.441406 15.28125 -3.859375 15.28125 -4.296875 C 15.28125 -5.191406 15.097656 -5.796875 14.734375 -6.109375 C 14.367188 -6.421875 13.78125 -6.578125 12.96875 -6.578125 L 12.96875 -7.46875 L 19.546875 -7.46875 L 19.546875 -6.578125 C 19.171875 -6.578125 18.859375 -6.546875 18.609375 -6.484375 C 18.367188 -6.429688 18.175781 -6.320312 18.03125 -6.15625 C 17.882812 -5.988281 17.78125 -5.773438 17.71875 -5.515625 C 17.664062 -5.253906 17.640625 -4.921875 17.640625 -4.515625 L 17.640625 -1.921875 C 17.347656 -1.921875 17.082031 -1.910156 16.84375 -1.890625 C 16.601562 -1.867188 16.351562 -1.8125 16.09375 -1.71875 C 15.832031 -1.632812 15.539062 -1.519531 15.21875 -1.375 C 14.90625 -1.226562 14.53125 -1.03125 14.09375 -0.78125 C 13.550781 -0.476562 12.925781 -0.234375 12.21875 -0.046875 C 11.519531 0.140625 10.753906 0.234375 9.921875 0.234375 Z M 9.921875 0.234375 "/></g></g></g><g fill="#1c191a" fill-opacity="1"><g transform="translate(224.029668, 263.433355)"><g><path d="M 6.03125 -9.8125 C 6.863281 -9.8125 7.5625 -9.859375 8.125 -9.953125 C 8.6875 -10.054688 9.132812 -10.21875 9.46875 -10.4375 C 9.800781 -10.65625 10.039062 -10.929688 10.1875 -11.265625 C 10.332031 -11.609375 10.40625 -12.007812 10.40625 -12.46875 L 11.21875 -12.46875 L 11.21875 -6.140625 L 10.40625 -6.140625 C 10.40625 -6.609375 10.335938 -7.007812 10.203125 -7.34375 C 10.078125 -7.6875 9.847656 -7.96875 9.515625 -8.1875 C 9.179688 -8.414062 8.734375 -8.585938 8.171875 -8.703125 C 7.609375 -8.816406 6.894531 -8.875 6.03125 -8.875 L 6.03125 -3.640625 C 6.03125 -3.128906 6.09375 -2.707031 6.21875 -2.375 C 6.34375 -2.039062 6.550781 -1.769531 6.84375 -1.5625 C 7.144531 -1.351562 7.539062 -1.207031 8.03125 -1.125 C 8.53125 -1.039062 9.144531 -1 9.875 -1 C 10.695312 -1 11.394531 -1.054688 11.96875 -1.171875 C 12.539062 -1.285156 13.019531 -1.476562 13.40625 -1.75 C 13.789062 -2.03125 14.097656 -2.398438 14.328125 -2.859375 C 14.554688 -3.316406 14.75 -3.882812 14.90625 -4.5625 L 15.796875 -4.5625 L 15.4375 0 L 1.046875 0 L 1.046875 -0.875 C 1.585938 -0.894531 2.023438 -0.941406 2.359375 -1.015625 C 2.691406 -1.097656 2.945312 -1.226562 3.125 -1.40625 C 3.3125 -1.59375 3.4375 -1.859375 3.5 -2.203125 C 3.5625 -2.546875 3.59375 -2.988281 3.59375 -3.53125 L 3.59375 -14.328125 C 3.59375 -14.867188 3.566406 -15.304688 3.515625 -15.640625 C 3.460938 -15.972656 3.351562 -16.234375 3.1875 -16.421875 C 3.019531 -16.617188 2.78125 -16.75 2.46875 -16.8125 C 2.164062 -16.882812 1.769531 -16.9375 1.28125 -16.96875 L 1.28125 -17.859375 L 14.671875 -17.859375 L 14.890625 -13.765625 L 14.078125 -13.765625 C 13.984375 -14.390625 13.832031 -14.898438 13.625 -15.296875 C 13.414062 -15.691406 13.128906 -16.003906 12.765625 -16.234375 C 12.398438 -16.460938 11.9375 -16.625 11.375 -16.71875 C 10.820312 -16.8125 10.15625 -16.859375 9.375 -16.859375 L 6.421875 -16.859375 C 6.160156 -16.859375 6.03125 -16.726562 6.03125 -16.46875 Z M 6.03125 -9.8125 "/></g></g></g><g fill="#1c191a" fill-opacity="1"><g transform="translate(240.862102, 263.433355)"><g><path d="M 16.09375 0.234375 L 5.078125 -14.28125 L 4.984375 -14.28125 L 4.984375 -4.375 C 4.984375 -3.601562 5.007812 -2.992188 5.0625 -2.546875 C 5.113281 -2.097656 5.222656 -1.75 5.390625 -1.5 C 5.554688 -1.257812 5.785156 -1.097656 6.078125 -1.015625 C 6.378906 -0.941406 6.78125 -0.894531 7.28125 -0.875 L 7.28125 0 L 1.046875 0 L 1.046875 -0.875 C 1.585938 -0.894531 2.023438 -0.945312 2.359375 -1.03125 C 2.691406 -1.113281 2.945312 -1.269531 3.125 -1.5 C 3.3125 -1.738281 3.4375 -2.066406 3.5 -2.484375 C 3.5625 -2.910156 3.59375 -3.488281 3.59375 -4.21875 L 3.59375 -13.640625 C 3.59375 -14.285156 3.566406 -14.820312 3.515625 -15.25 C 3.460938 -15.675781 3.351562 -16.007812 3.1875 -16.25 C 3.019531 -16.5 2.78125 -16.671875 2.46875 -16.765625 C 2.164062 -16.867188 1.769531 -16.9375 1.28125 -16.96875 L 1.28125 -17.859375 L 5.859375 -17.859375 L 16 -4.34375 L 16.09375 -4.34375 L 16.09375 -13.46875 C 16.09375 -14.226562 16.066406 -14.832031 16.015625 -15.28125 C 15.960938 -15.738281 15.851562 -16.09375 15.6875 -16.34375 C 15.519531 -16.59375 15.285156 -16.753906 14.984375 -16.828125 C 14.679688 -16.910156 14.285156 -16.957031 13.796875 -16.96875 L 13.796875 -17.859375 L 20.03125 -17.859375 L 20.03125 -16.96875 C 19.488281 -16.957031 19.050781 -16.90625 18.71875 -16.8125 C 18.382812 -16.726562 18.125 -16.570312 17.9375 -16.34375 C 17.757812 -16.113281 17.640625 -15.78125 17.578125 -15.34375 C 17.515625 -14.914062 17.484375 -14.347656 17.484375 -13.640625 L 17.484375 0.234375 Z M 16.09375 0.234375 "/></g></g></g><g fill="#1c191a" fill-opacity="1"><g transform="translate(261.775127, 263.433355)"><g><path d="M 1.34375 -5.453125 L 2.203125 -5.453125 C 2.304688 -4.753906 2.507812 -4.125 2.8125 -3.5625 C 3.113281 -3.007812 3.492188 -2.539062 3.953125 -2.15625 C 4.410156 -1.769531 4.9375 -1.472656 5.53125 -1.265625 C 6.125 -1.054688 6.769531 -0.953125 7.46875 -0.953125 C 8.613281 -0.953125 9.515625 -1.222656 10.171875 -1.765625 C 10.835938 -2.304688 11.171875 -3.039062 11.171875 -3.96875 C 11.171875 -4.351562 11.101562 -4.707031 10.96875 -5.03125 C 10.84375 -5.351562 10.625 -5.664062 10.3125 -5.96875 C 10.007812 -6.269531 9.597656 -6.566406 9.078125 -6.859375 C 8.554688 -7.148438 7.90625 -7.46875 7.125 -7.8125 C 6.164062 -8.226562 5.359375 -8.628906 4.703125 -9.015625 C 4.054688 -9.398438 3.539062 -9.800781 3.15625 -10.21875 C 2.769531 -10.644531 2.492188 -11.09375 2.328125 -11.5625 C 2.171875 -12.03125 2.09375 -12.566406 2.09375 -13.171875 C 2.09375 -13.878906 2.21875 -14.535156 2.46875 -15.140625 C 2.726562 -15.742188 3.085938 -16.265625 3.546875 -16.703125 C 4.015625 -17.148438 4.5625 -17.492188 5.1875 -17.734375 C 5.820312 -17.972656 6.519531 -18.09375 7.28125 -18.09375 C 7.957031 -18.09375 8.585938 -17.984375 9.171875 -17.765625 C 9.765625 -17.546875 10.363281 -17.195312 10.96875 -16.71875 L 11.578125 -17.765625 L 12.109375 -17.765625 L 12.359375 -13.140625 L 11.5 -13.140625 C 11.125 -14.410156 10.582031 -15.351562 9.875 -15.96875 C 9.175781 -16.59375 8.332031 -16.90625 7.34375 -16.90625 C 6.40625 -16.90625 5.65625 -16.671875 5.09375 -16.203125 C 4.539062 -15.742188 4.265625 -15.117188 4.265625 -14.328125 C 4.265625 -13.953125 4.328125 -13.613281 4.453125 -13.3125 C 4.578125 -13.019531 4.773438 -12.738281 5.046875 -12.46875 C 5.328125 -12.195312 5.691406 -11.925781 6.140625 -11.65625 C 6.585938 -11.382812 7.144531 -11.101562 7.8125 -10.8125 C 8.957031 -10.300781 9.90625 -9.820312 10.65625 -9.375 C 11.414062 -8.9375 12.019531 -8.492188 12.46875 -8.046875 C 12.914062 -7.609375 13.234375 -7.144531 13.421875 -6.65625 C 13.609375 -6.175781 13.703125 -5.632812 13.703125 -5.03125 C 13.703125 -4.257812 13.546875 -3.546875 13.234375 -2.890625 C 12.929688 -2.242188 12.5 -1.6875 11.9375 -1.21875 C 11.382812 -0.757812 10.71875 -0.398438 9.9375 -0.140625 C 9.164062 0.109375 8.316406 0.234375 7.390625 0.234375 C 6.515625 0.234375 5.722656 0.109375 5.015625 -0.140625 C 4.316406 -0.390625 3.601562 -0.804688 2.875 -1.390625 L 2.21875 -0.25 L 1.6875 -0.25 Z M 1.34375 -5.453125 "/></g></g></g><path stroke-linecap="butt" transform="matrix(0.768036, 0, 0, 0.768036, 227.559849, 261.88223)" fill="none" stroke-linejoin="miter" d="M 0.705323 5.442803 L 2.978776 5.442803 C 4.163819 5.442803 5.058959 5.666588 5.674368 6.119245 C 6.284691 6.571901 6.594938 7.217826 6.594938 8.046847 C 6.594938 8.494417 6.488132 8.896213 6.274519 9.252235 C 6.060906 9.603171 5.781175 9.89816 5.430239 10.137203 C 5.084389 10.376246 4.692766 10.559343 4.260454 10.686493 C 3.833228 10.813644 3.406002 10.879762 2.978776 10.879762 L 2.368453 10.879762 L 2.368453 14.958753 C 2.368453 15.045216 2.378625 15.14185 2.398969 15.24357 C 2.424399 15.340205 2.454915 15.431753 2.505775 15.518216 C 2.55155 15.604678 2.60241 15.680968 2.663442 15.747087 C 2.724474 15.808119 2.795679 15.838635 2.877055 15.838635 L 2.958432 15.838635 L 2.958432 16.001388 L 0.705323 16.001388 L 0.705323 15.838635 L 0.7867 15.838635 C 0.857904 15.838635 0.929108 15.808119 0.990141 15.747087 C 1.056259 15.680968 1.112205 15.604678 1.152893 15.518216 C 1.193581 15.431753 1.224098 15.340205 1.244442 15.24357 C 1.269872 15.14185 1.280044 15.045216 1.280044 14.958753 L 1.280044 6.434578 C 1.280044 6.281997 1.239356 6.114159 1.152893 5.92089 C 1.066431 5.727621 0.944366 5.620814 0.7867 5.60047 L 0.705323 5.60047 Z M 2.368453 6.002266 L 2.368453 10.3203 L 2.846539 10.3203 C 3.273765 10.3203 3.655217 10.259268 3.990894 10.142289 C 4.326572 10.02531 4.606303 9.87273 4.830088 9.679461 C 5.053873 9.486192 5.226798 9.267493 5.343777 9.023364 C 5.460755 8.779235 5.521787 8.53002 5.521787 8.275718 C 5.521787 7.965471 5.470927 7.675568 5.369207 7.400922 C 5.267486 7.131363 5.099647 6.887234 4.870776 6.678707 C 4.641905 6.47018 4.34183 6.307427 3.965464 6.185363 C 3.594184 6.063298 3.136442 6.002266 2.592238 6.002266 Z M 14.066307 15.838635 L 14.142597 15.838635 C 14.401984 15.838635 14.529135 15.721657 14.529135 15.4877 C 14.529135 15.401237 14.513877 15.309689 14.478274 15.213054 L 13.03893 11.327332 L 10.241617 11.327332 L 8.848047 15.152022 C 8.81753 15.238484 8.797186 15.319861 8.797186 15.391065 C 8.797186 15.533474 8.837875 15.64028 8.914165 15.721657 C 8.985369 15.803033 9.066746 15.838635 9.153208 15.838635 L 9.229498 15.838635 L 9.229498 16.001388 L 7.454476 16.001388 L 7.454476 15.838635 L 7.535853 15.838635 C 7.673175 15.838635 7.810498 15.757259 7.942734 15.594506 C 8.074971 15.426667 8.186864 15.233398 8.273326 15.009613 L 11.935263 5.244449 L 15.520909 14.907893 C 15.592114 15.121506 15.69892 15.330033 15.831157 15.533474 C 15.963393 15.736915 16.141404 15.838635 16.355017 15.838635 L 16.431307 15.838635 L 16.431307 16.001388 L 14.066307 16.001388 Z M 10.399284 10.783128 L 12.866005 10.783128 L 11.630101 7.441611 Z M 23.87216 13.168473 C 23.87216 13.702505 23.765353 14.160247 23.55174 14.536613 C 23.338127 14.918065 23.063482 15.223226 22.727804 15.457183 C 22.392127 15.69114 22.010675 15.864065 21.588535 15.970872 C 21.171481 16.077678 20.754427 16.128538 20.337373 16.128538 C 19.910147 16.128538 19.538868 16.08785 19.22862 16.001388 C 18.923459 15.914926 18.638642 15.833549 18.38434 15.762345 C 18.211416 15.706399 18.058835 15.660624 17.916426 15.625022 C 17.779104 15.584334 17.641781 15.56399 17.504458 15.56399 L 17.504458 13.743194 L 17.662125 13.743194 C 17.662125 14.150075 17.768932 14.470495 17.977459 14.709538 C 18.185985 14.948581 18.425029 15.136764 18.70476 15.263915 C 18.979405 15.391065 19.259136 15.477528 19.533782 15.51313 C 19.813513 15.548732 20.016954 15.56399 20.144104 15.56399 C 20.601847 15.56399 20.998556 15.497872 21.329148 15.365635 C 21.659739 15.233398 21.929299 15.060474 22.142912 14.841775 C 22.356525 14.623076 22.514191 14.378946 22.615912 14.114473 C 22.717632 13.844914 22.768493 13.575355 22.768493 13.295623 C 22.768493 12.944688 22.692202 12.649699 22.544707 12.410655 C 22.397213 12.166526 22.198858 11.957999 21.959815 11.774902 C 21.720772 11.596892 21.446126 11.439225 21.135879 11.312074 C 20.825632 11.184924 20.510298 11.057773 20.189879 10.930623 C 19.828771 10.788214 19.472749 10.645805 19.121814 10.498311 C 18.770878 10.34573 18.455545 10.162633 18.175813 9.943934 C 17.901168 9.725235 17.677383 9.465848 17.504458 9.160686 C 17.331534 8.855525 17.245071 8.479159 17.245071 8.031589 C 17.245071 7.563675 17.33662 7.156793 17.519716 6.810944 C 17.702813 6.460008 17.941856 6.175191 18.247018 5.951406 C 18.552179 5.727621 18.898029 5.559782 19.284567 5.447889 C 19.67619 5.335997 20.0729 5.280051 20.479782 5.280051 C 20.754427 5.280051 21.0189 5.300395 21.26303 5.335997 C 21.507159 5.371599 21.746202 5.417373 21.969987 5.47332 C 22.147998 5.514008 22.320922 5.54961 22.493847 5.580126 C 22.661686 5.605556 22.829525 5.615728 22.992278 5.615728 L 22.992278 7.2636 L 22.834611 7.2636 C 22.809181 6.709223 22.590482 6.332858 22.173428 6.134503 C 21.76146 5.941234 21.181653 5.839513 20.449266 5.839513 C 20.02204 5.839513 19.671104 5.910718 19.396459 6.058212 C 19.1269 6.200621 18.913287 6.378632 18.750534 6.587159 C 18.592867 6.7906 18.480975 7.014385 18.419943 7.258514 C 18.363996 7.497557 18.338566 7.706084 18.338566 7.889181 C 18.338566 8.18417 18.404684 8.443557 18.536921 8.65717 C 18.669158 8.870783 18.847169 9.058966 19.070954 9.216633 C 19.294739 9.379385 19.554126 9.521794 19.849115 9.648945 C 20.144104 9.776095 20.449266 9.89816 20.769685 10.015138 C 21.130793 10.152461 21.496987 10.305042 21.873352 10.462708 C 22.244632 10.625461 22.58031 10.81873 22.870213 11.052687 C 23.165202 11.286644 23.404245 11.576548 23.592428 11.922397 C 23.775525 12.263161 23.87216 12.680215 23.87216 13.168473 Z M 31.709722 13.168473 C 31.709722 13.702505 31.602915 14.160247 31.389302 14.536613 C 31.175689 14.918065 30.901044 15.223226 30.565366 15.457183 C 30.229689 15.69114 29.853323 15.864065 29.431183 15.970872 C 29.009043 16.077678 28.591989 16.128538 28.174935 16.128538 C 27.747709 16.128538 27.381516 16.08785 27.071268 16.001388 C 26.761021 15.914926 26.48129 15.833549 26.221902 15.762345 C 26.054064 15.706399 25.896397 15.660624 25.759074 15.625022 C 25.621752 15.584334 25.484429 15.56399 25.34202 15.56399 L 25.34202 13.743194 L 25.504773 13.743194 C 25.504773 14.150075 25.606494 14.470495 25.815021 14.709538 C 26.023547 14.948581 26.267677 15.136764 26.542322 15.263915 C 26.822053 15.391065 27.101784 15.477528 27.37643 15.51313 C 27.656161 15.548732 27.859602 15.56399 27.986752 15.56399 C 28.444495 15.56399 28.836118 15.497872 29.16671 15.365635 C 29.497301 15.233398 29.771947 15.060474 29.98556 14.841775 C 30.199173 14.623076 30.356839 14.378946 30.45856 14.114473 C 30.56028 13.844914 30.611141 13.575355 30.611141 13.295623 C 30.611141 12.944688 30.53485 12.649699 30.382269 12.410655 C 30.234775 12.166526 30.041506 11.957999 29.802463 11.774902 C 29.56342 11.596892 29.288774 11.439225 28.978527 11.312074 C 28.66828 11.184924 28.352946 11.057773 28.032527 10.930623 C 27.671419 10.788214 27.310311 10.645805 26.959376 10.498311 C 26.60844 10.34573 26.293107 10.162633 26.018461 9.943934 C 25.73873 9.725235 25.514945 9.465848 25.34202 9.160686 C 25.174182 8.855525 25.087719 8.479159 25.087719 8.031589 C 25.087719 7.563675 25.179268 7.156793 25.357278 6.810944 C 25.540375 6.460008 25.784504 6.175191 26.08458 5.951406 C 26.389741 5.727621 26.735591 5.559782 27.127215 5.447889 C 27.513752 5.335997 27.915548 5.280051 28.32243 5.280051 C 28.597075 5.280051 28.856462 5.300395 29.100592 5.335997 C 29.349807 5.371599 29.583764 5.417373 29.807549 5.47332 C 29.990646 5.514008 30.16357 5.54961 30.331409 5.580126 C 30.504334 5.605556 30.672173 5.615728 30.82984 5.615728 L 30.82984 7.2636 L 30.672173 7.2636 C 30.651829 6.709223 30.43313 6.332858 30.016076 6.134503 C 29.599022 5.941234 29.024301 5.839513 28.291914 5.839513 C 27.864688 5.839513 27.513752 5.910718 27.239107 6.058212 C 26.969548 6.200621 26.750849 6.378632 26.588096 6.587159 C 26.430429 6.7906 26.323623 7.014385 26.262591 7.258514 C 26.206644 7.497557 26.176128 7.706084 26.176128 7.889181 C 26.176128 8.18417 26.242246 8.443557 26.374483 8.65717 C 26.50672 8.870783 26.684731 9.058966 26.908516 9.216633 C 27.132301 9.379385 27.391688 9.521794 27.686677 9.648945 C 27.981666 9.776095 28.291914 9.89816 28.607247 10.015138 C 28.973441 10.152461 29.339635 10.305042 29.710914 10.462708 C 30.08728 10.625461 30.417872 10.81873 30.712861 11.052687 C 31.00785 11.286644 31.246893 11.576548 31.42999 11.922397 C 31.618173 12.263161 31.709722 12.680215 31.709722 13.168473 Z M 33.072776 15.838635 L 33.154152 15.838635 C 33.240615 15.838635 33.311819 15.813205 33.377937 15.752173 C 33.43897 15.696227 33.494916 15.619936 33.545776 15.533474 C 33.59155 15.447011 33.632238 15.360549 33.657669 15.263915 C 33.683099 15.16728 33.693271 15.075732 33.693271 14.994355 L 33.693271 6.434578 C 33.693271 6.358288 33.683099 6.271825 33.657669 6.175191 C 33.632238 6.078556 33.59155 5.992094 33.545776 5.905632 C 33.494916 5.819169 33.43897 5.747965 33.377937 5.692019 C 33.311819 5.630986 33.240615 5.60047 33.154152 5.60047 L 33.072776 5.60047 L 33.072776 5.442803 L 39.23195 5.442803 L 39.23195 6.927922 L 39.069197 6.927922 C 39.048853 6.683793 38.952219 6.465094 38.779294 6.281997 C 38.611455 6.093814 38.346982 6.002266 37.985874 6.002266 L 34.766422 6.002266 L 34.766422 10.045655 L 37.421326 10.045655 C 37.670541 10.045655 37.873982 9.97445 38.041821 9.82187 C 38.204573 9.674375 38.291036 9.50145 38.291036 9.298009 L 38.448703 9.298009 L 38.448703 11.296816 L 38.291036 11.296816 C 38.291036 11.103547 38.209659 10.940795 38.046907 10.798386 C 37.88924 10.661063 37.680713 10.594945 37.421326 10.594945 L 34.766422 10.594945 L 34.766422 15.441925 L 38.275778 15.441925 C 38.474133 15.441925 38.647057 15.391065 38.799638 15.294431 C 38.947133 15.202882 39.074283 15.085904 39.176004 14.953667 C 39.277724 14.82143 39.354015 14.679022 39.399789 14.521355 C 39.450649 14.368774 39.470993 14.236538 39.470993 14.129731 L 39.633746 14.129731 L 39.633746 16.001388 L 33.072776 16.001388 Z M 40.89508 5.442803 L 43.18379 5.442803 L 43.18379 5.60047 L 43.102414 5.60047 C 43.03121 5.60047 42.960005 5.630986 42.893887 5.692019 C 42.832855 5.747965 42.776908 5.819169 42.731134 5.900546 C 42.690446 5.976836 42.65993 6.068384 42.629414 6.170105 C 42.603984 6.271825 42.593812 6.358288 42.593812 6.434578 L 42.593812 14.958753 C 42.593812 15.045216 42.603984 15.14185 42.624328 15.24357 C 42.644672 15.340205 42.680274 15.431753 42.726048 15.518216 C 42.776908 15.604678 42.827769 15.680968 42.883715 15.747087 C 42.944747 15.808119 43.015952 15.838635 43.102414 15.838635 L 43.18379 15.838635 L 43.18379 16.001388 L 40.89508 16.001388 L 40.89508 15.838635 L 40.976456 15.838635 C 41.062919 15.838635 41.134123 15.813205 41.200241 15.752173 C 41.261273 15.696227 41.31722 15.619936 41.36808 15.528388 C 41.413854 15.436839 41.449456 15.340205 41.4698 15.24357 C 41.490145 15.14185 41.500317 15.045216 41.500317 14.958753 L 41.500317 6.434578 C 41.500317 6.358288 41.490145 6.271825 41.4698 6.175191 C 41.449456 6.078556 41.413854 5.992094 41.36808 5.905632 C 41.31722 5.819169 41.261273 5.747965 41.200241 5.692019 C 41.134123 5.630986 41.062919 5.60047 40.976456 5.60047 L 40.89508 5.60047 Z M 50.110954 5.280051 C 50.945062 5.280051 51.692707 5.427545 52.35389 5.722535 C 53.015073 6.012438 53.574536 6.409148 54.037364 6.907578 C 54.500192 7.400922 54.8613 7.975643 55.110515 8.63174 C 55.35973 9.287837 55.486881 9.97445 55.486881 10.686493 C 55.486881 11.484999 55.339386 12.222473 55.044397 12.893828 C 54.754493 13.565183 54.352698 14.144989 53.839009 14.623076 C 53.325321 15.106248 52.730256 15.482614 52.053815 15.752173 C 51.377374 16.026818 50.655159 16.159055 49.887169 16.159055 C 49.068319 16.159055 48.32576 16.01156 47.669663 15.716571 C 47.013566 15.416495 46.459189 15.019785 46.006533 14.531527 C 45.553877 14.038183 45.208028 13.473634 44.958812 12.832795 C 44.714683 12.191956 44.592619 11.525687 44.592619 10.833988 C 44.592619 10.147375 44.714683 9.47602 44.958812 8.809751 C 45.208028 8.143482 45.564049 7.548417 46.037049 7.024557 C 46.515136 6.500696 47.094942 6.078556 47.776469 5.763223 C 48.457997 5.442803 49.236158 5.280051 50.110954 5.280051 Z M 50.095696 15.599592 C 50.812825 15.569076 51.438406 15.406323 51.977525 15.111334 C 52.516643 14.82143 52.964213 14.445065 53.330407 13.992409 C 53.691515 13.539753 53.955988 13.041322 54.133999 12.497118 C 54.312009 11.952913 54.398472 11.413795 54.398472 10.879762 C 54.398472 10.29487 54.291665 9.699805 54.078052 9.10474 C 53.869525 8.504589 53.564364 7.965471 53.167654 7.482299 C 52.770944 6.994041 52.297944 6.602417 51.748654 6.297255 C 51.204449 5.992094 50.58904 5.839513 49.902427 5.839513 C 49.241244 5.839513 48.646179 5.987008 48.127405 6.281997 C 47.603545 6.571901 47.161061 6.948266 46.789781 7.411094 C 46.423587 7.868837 46.143856 8.382525 45.950587 8.947074 C 45.757318 9.511622 45.66577 10.065999 45.66577 10.610203 C 45.66577 11.195096 45.777662 11.785075 46.001447 12.380139 C 46.225232 12.970118 46.530394 13.50415 46.927103 13.982237 C 47.323813 14.465409 47.786641 14.851947 48.32576 15.152022 C 48.864878 15.452097 49.454857 15.599592 50.095696 15.599592 Z M 63.375303 13.168473 C 63.375303 13.702505 63.268497 14.160247 63.054884 14.536613 C 62.841271 14.918065 62.566625 15.223226 62.230948 15.457183 C 61.89527 15.69114 61.513818 15.864065 61.091679 15.970872 C 60.674625 16.077678 60.257571 16.128538 59.840517 16.128538 C 59.413291 16.128538 59.047097 16.08785 58.73685 16.001388 C 58.426602 15.914926 58.146871 15.833549 57.887484 15.762345 C 57.719645 15.706399 57.561978 15.660624 57.424656 15.625022 C 57.282247 15.584334 57.144924 15.56399 57.007602 15.56399 L 57.007602 13.743194 L 57.170355 13.743194 C 57.170355 14.150075 57.272075 14.470495 57.480602 14.709538 C 57.689129 14.948581 57.933258 15.136764 58.207903 15.263915 C 58.487635 15.391065 58.76228 15.477528 59.036925 15.51313 C 59.316656 15.548732 59.520097 15.56399 59.647248 15.56399 C 60.10499 15.56399 60.5017 15.497872 60.832291 15.365635 C 61.162883 15.233398 61.437528 15.060474 61.651141 14.841775 C 61.864754 14.623076 62.017335 14.378946 62.119055 14.114473 C 62.220776 13.844914 62.271636 13.575355 62.271636 13.295623 C 62.271636 12.944688 62.200432 12.649699 62.047851 12.410655 C 61.900356 12.166526 61.707087 11.957999 61.462958 11.774902 C 61.223915 11.596892 60.94927 11.439225 60.639022 11.312074 C 60.328775 11.184924 60.013442 11.057773 59.698108 10.930623 C 59.331914 10.788214 58.975893 10.645805 58.624957 10.498311 C 58.274022 10.34573 57.958688 10.162633 57.678957 9.943934 C 57.404312 9.725235 57.180527 9.465848 57.007602 9.160686 C 56.834677 8.855525 56.748215 8.479159 56.748215 8.031589 C 56.748215 7.563675 56.839763 7.156793 57.02286 6.810944 C 57.205957 6.460008 57.450086 6.175191 57.750161 5.951406 C 58.055323 5.727621 58.401172 5.559782 58.78771 5.447889 C 59.179334 5.335997 59.576044 5.280051 59.982925 5.280051 C 60.262657 5.280051 60.522044 5.300395 60.766173 5.335997 C 61.015388 5.371599 61.249345 5.417373 61.47313 5.47332 C 61.651141 5.514008 61.829152 5.54961 61.996991 5.580126 C 62.169915 5.605556 62.332668 5.615728 62.495421 5.615728 L 62.495421 7.2636 L 62.337754 7.2636 C 62.31741 6.709223 62.098711 6.332858 61.681657 6.134503 C 61.264603 5.941234 60.689883 5.839513 59.952409 5.839513 C 59.525183 5.839513 59.174248 5.910718 58.904688 6.058212 C 58.630043 6.200621 58.41643 6.378632 58.253677 6.587159 C 58.096011 6.7906 57.984118 7.014385 57.928172 7.258514 C 57.86714 7.497557 57.84171 7.706084 57.84171 7.889181 C 57.84171 8.18417 57.907828 8.443557 58.040065 8.65717 C 58.172301 8.870783 58.350312 9.058966 58.574097 9.216633 C 58.797882 9.379385 59.057269 9.521794 59.352259 9.648945 C 59.647248 9.776095 59.952409 9.89816 60.272829 10.015138 C 60.633936 10.152461 61.005216 10.305042 61.376496 10.462708 C 61.747776 10.625461 62.083453 10.81873 62.373356 11.052687 C 62.668346 11.286644 62.907389 11.576548 63.095572 11.922397 C 63.283755 12.263161 63.375303 12.680215 63.375303 13.168473 Z M 63.375303 13.168473 " stroke="#f4b324" stroke-width="0.62" stroke-opacity="1" stroke-miterlimit="4"/><g fill="#1c191a" fill-opacity="1"><g transform="translate(227.559849, 274.170809)"><g><path d="M 0.546875 -8.109375 L 2.28125 -8.109375 C 3.1875 -8.109375 3.875 -7.929688 4.34375 -7.578125 C 4.820312 -7.234375 5.0625 -6.742188 5.0625 -6.109375 C 5.0625 -5.765625 4.976562 -5.457031 4.8125 -5.1875 C 4.644531 -4.914062 4.425781 -4.6875 4.15625 -4.5 C 3.894531 -4.3125 3.597656 -4.171875 3.265625 -4.078125 C 2.941406 -3.984375 2.613281 -3.9375 2.28125 -3.9375 L 1.8125 -3.9375 L 1.8125 -0.796875 C 1.8125 -0.734375 1.816406 -0.660156 1.828125 -0.578125 C 1.847656 -0.503906 1.878906 -0.429688 1.921875 -0.359375 C 1.960938 -0.296875 2.003906 -0.238281 2.046875 -0.1875 C 2.085938 -0.144531 2.140625 -0.125 2.203125 -0.125 L 2.265625 -0.125 L 2.265625 0 L 0.546875 0 L 0.546875 -0.125 L 0.609375 -0.125 C 0.660156 -0.125 0.707031 -0.144531 0.75 -0.1875 C 0.800781 -0.238281 0.84375 -0.296875 0.875 -0.359375 C 0.914062 -0.429688 0.941406 -0.503906 0.953125 -0.578125 C 0.972656 -0.660156 0.984375 -0.734375 0.984375 -0.796875 L 0.984375 -7.34375 C 0.984375 -7.457031 0.945312 -7.585938 0.875 -7.734375 C 0.8125 -7.878906 0.722656 -7.960938 0.609375 -7.984375 L 0.546875 -7.984375 Z M 1.8125 -7.671875 L 1.8125 -4.359375 L 2.1875 -4.359375 C 2.507812 -4.359375 2.800781 -4.398438 3.0625 -4.484375 C 3.320312 -4.578125 3.535156 -4.695312 3.703125 -4.84375 C 3.878906 -5 4.007812 -5.171875 4.09375 -5.359375 C 4.1875 -5.546875 4.234375 -5.738281 4.234375 -5.9375 C 4.234375 -6.164062 4.191406 -6.382812 4.109375 -6.59375 C 4.035156 -6.8125 3.910156 -7 3.734375 -7.15625 C 3.554688 -7.3125 3.320312 -7.4375 3.03125 -7.53125 C 2.75 -7.625 2.398438 -7.671875 1.984375 -7.671875 Z M 1.8125 -7.671875 "/></g></g></g><g fill="#1c191a" fill-opacity="1"><g transform="translate(233.114294, 274.170809)"><g><path d="M 5.25 -0.125 L 5.3125 -0.125 C 5.5 -0.125 5.59375 -0.210938 5.59375 -0.390625 C 5.59375 -0.453125 5.582031 -0.523438 5.5625 -0.609375 L 4.453125 -3.59375 L 2.3125 -3.59375 L 1.234375 -0.65625 C 1.210938 -0.582031 1.203125 -0.519531 1.203125 -0.46875 C 1.203125 -0.363281 1.226562 -0.28125 1.28125 -0.21875 C 1.34375 -0.15625 1.40625 -0.125 1.46875 -0.125 L 1.53125 -0.125 L 1.53125 0 L 0.171875 0 L 0.171875 -0.125 L 0.234375 -0.125 C 0.335938 -0.125 0.441406 -0.1875 0.546875 -0.3125 C 0.648438 -0.4375 0.734375 -0.585938 0.796875 -0.765625 L 3.609375 -8.25 L 6.359375 -0.828125 C 6.421875 -0.671875 6.5 -0.515625 6.59375 -0.359375 C 6.695312 -0.203125 6.832031 -0.125 7 -0.125 L 7.0625 -0.125 L 7.0625 0 L 5.25 0 Z M 2.4375 -4 L 4.328125 -4 L 3.375 -6.578125 Z M 2.4375 -4 "/></g></g></g><g fill="#1c191a" fill-opacity="1"><g transform="translate(240.364569, 274.170809)"><g><path d="M 5.53125 -2.171875 C 5.53125 -1.765625 5.445312 -1.414062 5.28125 -1.125 C 5.113281 -0.832031 4.898438 -0.59375 4.640625 -0.40625 C 4.390625 -0.226562 4.101562 -0.0976562 3.78125 -0.015625 C 3.457031 0.0546875 3.132812 0.09375 2.8125 0.09375 C 2.488281 0.09375 2.207031 0.0625 1.96875 0 C 1.726562 -0.0625 1.507812 -0.125 1.3125 -0.1875 C 1.1875 -0.226562 1.066406 -0.257812 0.953125 -0.28125 C 0.847656 -0.3125 0.742188 -0.328125 0.640625 -0.328125 L 0.640625 -1.734375 L 0.765625 -1.734375 C 0.765625 -1.421875 0.84375 -1.171875 1 -0.984375 C 1.15625 -0.804688 1.335938 -0.664062 1.546875 -0.5625 C 1.765625 -0.46875 1.976562 -0.40625 2.1875 -0.375 C 2.40625 -0.34375 2.566406 -0.328125 2.671875 -0.328125 C 3.015625 -0.328125 3.3125 -0.378906 3.5625 -0.484375 C 3.820312 -0.585938 4.035156 -0.722656 4.203125 -0.890625 C 4.367188 -1.054688 4.488281 -1.238281 4.5625 -1.4375 C 4.632812 -1.644531 4.671875 -1.859375 4.671875 -2.078125 C 4.671875 -2.347656 4.613281 -2.570312 4.5 -2.75 C 4.382812 -2.9375 4.234375 -3.097656 4.046875 -3.234375 C 3.867188 -3.378906 3.660156 -3.5 3.421875 -3.59375 C 3.179688 -3.695312 2.941406 -3.796875 2.703125 -3.890625 C 2.421875 -3.992188 2.144531 -4.101562 1.875 -4.21875 C 1.601562 -4.332031 1.359375 -4.472656 1.140625 -4.640625 C 0.929688 -4.816406 0.757812 -5.019531 0.625 -5.25 C 0.5 -5.476562 0.4375 -5.765625 0.4375 -6.109375 C 0.4375 -6.472656 0.503906 -6.785156 0.640625 -7.046875 C 0.785156 -7.316406 0.972656 -7.535156 1.203125 -7.703125 C 1.441406 -7.878906 1.707031 -8.007812 2 -8.09375 C 2.300781 -8.1875 2.609375 -8.234375 2.921875 -8.234375 C 3.140625 -8.234375 3.34375 -8.21875 3.53125 -8.1875 C 3.71875 -8.15625 3.894531 -8.117188 4.0625 -8.078125 C 4.207031 -8.046875 4.34375 -8.019531 4.46875 -8 C 4.601562 -7.976562 4.726562 -7.96875 4.84375 -7.96875 L 4.84375 -6.703125 L 4.734375 -6.703125 C 4.710938 -7.128906 4.539062 -7.414062 4.21875 -7.5625 C 3.90625 -7.71875 3.460938 -7.796875 2.890625 -7.796875 C 2.566406 -7.796875 2.300781 -7.738281 2.09375 -7.625 C 1.882812 -7.519531 1.71875 -7.382812 1.59375 -7.21875 C 1.46875 -7.0625 1.382812 -6.890625 1.34375 -6.703125 C 1.300781 -6.523438 1.28125 -6.363281 1.28125 -6.21875 C 1.28125 -5.988281 1.328125 -5.789062 1.421875 -5.625 C 1.523438 -5.46875 1.660156 -5.328125 1.828125 -5.203125 C 2.003906 -5.078125 2.207031 -4.96875 2.4375 -4.875 C 2.664062 -4.78125 2.898438 -4.6875 3.140625 -4.59375 C 3.421875 -4.488281 3.703125 -4.375 3.984375 -4.25 C 4.273438 -4.125 4.53125 -3.972656 4.75 -3.796875 C 4.976562 -3.617188 5.164062 -3.394531 5.3125 -3.125 C 5.457031 -2.863281 5.53125 -2.546875 5.53125 -2.171875 Z M 5.53125 -2.171875 "/></g></g></g><g fill="#1c191a" fill-opacity="1"><g transform="translate(246.385982, 274.170809)"><g><path d="M 5.53125 -2.171875 C 5.53125 -1.765625 5.445312 -1.414062 5.28125 -1.125 C 5.113281 -0.832031 4.898438 -0.59375 4.640625 -0.40625 C 4.390625 -0.226562 4.101562 -0.0976562 3.78125 -0.015625 C 3.457031 0.0546875 3.132812 0.09375 2.8125 0.09375 C 2.488281 0.09375 2.207031 0.0625 1.96875 0 C 1.726562 -0.0625 1.507812 -0.125 1.3125 -0.1875 C 1.1875 -0.226562 1.066406 -0.257812 0.953125 -0.28125 C 0.847656 -0.3125 0.742188 -0.328125 0.640625 -0.328125 L 0.640625 -1.734375 L 0.765625 -1.734375 C 0.765625 -1.421875 0.84375 -1.171875 1 -0.984375 C 1.15625 -0.804688 1.335938 -0.664062 1.546875 -0.5625 C 1.765625 -0.46875 1.976562 -0.40625 2.1875 -0.375 C 2.40625 -0.34375 2.566406 -0.328125 2.671875 -0.328125 C 3.015625 -0.328125 3.3125 -0.378906 3.5625 -0.484375 C 3.820312 -0.585938 4.035156 -0.722656 4.203125 -0.890625 C 4.367188 -1.054688 4.488281 -1.238281 4.5625 -1.4375 C 4.632812 -1.644531 4.671875 -1.859375 4.671875 -2.078125 C 4.671875 -2.347656 4.613281 -2.570312 4.5 -2.75 C 4.382812 -2.9375 4.234375 -3.097656 4.046875 -3.234375 C 3.867188 -3.378906 3.660156 -3.5 3.421875 -3.59375 C 3.179688 -3.695312 2.941406 -3.796875 2.703125 -3.890625 C 2.421875 -3.992188 2.144531 -4.101562 1.875 -4.21875 C 1.601562 -4.332031 1.359375 -4.472656 1.140625 -4.640625 C 0.929688 -4.816406 0.757812 -5.019531 0.625 -5.25 C 0.5 -5.476562 0.4375 -5.765625 0.4375 -6.109375 C 0.4375 -6.472656 0.503906 -6.785156 0.640625 -7.046875 C 0.785156 -7.316406 0.972656 -7.535156 1.203125 -7.703125 C 1.441406 -7.878906 1.707031 -8.007812 2 -8.09375 C 2.300781 -8.1875 2.609375 -8.234375 2.921875 -8.234375 C 3.140625 -8.234375 3.34375 -8.21875 3.53125 -8.1875 C 3.71875 -8.15625 3.894531 -8.117188 4.0625 -8.078125 C 4.207031 -8.046875 4.34375 -8.019531 4.46875 -8 C 4.601562 -7.976562 4.726562 -7.96875 4.84375 -7.96875 L 4.84375 -6.703125 L 4.734375 -6.703125 C 4.710938 -7.128906 4.539062 -7.414062 4.21875 -7.5625 C 3.90625 -7.71875 3.460938 -7.796875 2.890625 -7.796875 C 2.566406 -7.796875 2.300781 -7.738281 2.09375 -7.625 C 1.882812 -7.519531 1.71875 -7.382812 1.59375 -7.21875 C 1.46875 -7.0625 1.382812 -6.890625 1.34375 -6.703125 C 1.300781 -6.523438 1.28125 -6.363281 1.28125 -6.21875 C 1.28125 -5.988281 1.328125 -5.789062 1.421875 -5.625 C 1.523438 -5.46875 1.660156 -5.328125 1.828125 -5.203125 C 2.003906 -5.078125 2.207031 -4.96875 2.4375 -4.875 C 2.664062 -4.78125 2.898438 -4.6875 3.140625 -4.59375 C 3.421875 -4.488281 3.703125 -4.375 3.984375 -4.25 C 4.273438 -4.125 4.53125 -3.972656 4.75 -3.796875 C 4.976562 -3.617188 5.164062 -3.394531 5.3125 -3.125 C 5.457031 -2.863281 5.53125 -2.546875 5.53125 -2.171875 Z M 5.53125 -2.171875 "/></g></g></g><g fill="#1c191a" fill-opacity="1"><g transform="translate(252.407395, 274.170809)"><g><path d="M 0.546875 -0.125 L 0.609375 -0.125 C 0.679688 -0.125 0.738281 -0.144531 0.78125 -0.1875 C 0.832031 -0.238281 0.875 -0.296875 0.90625 -0.359375 C 0.945312 -0.421875 0.976562 -0.488281 1 -0.5625 C 1.019531 -0.632812 1.03125 -0.707031 1.03125 -0.78125 L 1.03125 -7.34375 C 1.03125 -7.40625 1.019531 -7.472656 1 -7.546875 C 0.976562 -7.617188 0.945312 -7.6875 0.90625 -7.75 C 0.875 -7.8125 0.832031 -7.863281 0.78125 -7.90625 C 0.738281 -7.957031 0.679688 -7.984375 0.609375 -7.984375 L 0.546875 -7.984375 L 0.546875 -8.109375 L 5.28125 -8.109375 L 5.28125 -6.96875 L 5.15625 -6.96875 C 5.144531 -7.15625 5.070312 -7.316406 4.9375 -7.453125 C 4.800781 -7.597656 4.597656 -7.671875 4.328125 -7.671875 L 1.859375 -7.671875 L 1.859375 -4.5625 L 3.890625 -4.5625 C 4.078125 -4.5625 4.234375 -4.617188 4.359375 -4.734375 C 4.492188 -4.847656 4.5625 -4.984375 4.5625 -5.140625 L 4.671875 -5.140625 L 4.671875 -3.609375 L 4.5625 -3.609375 C 4.5625 -3.753906 4.5 -3.878906 4.375 -3.984375 C 4.25 -4.097656 4.085938 -4.15625 3.890625 -4.15625 L 1.859375 -4.15625 L 1.859375 -0.4375 L 4.546875 -0.4375 C 4.703125 -0.4375 4.835938 -0.472656 4.953125 -0.546875 C 5.066406 -0.617188 5.160156 -0.703125 5.234375 -0.796875 C 5.316406 -0.898438 5.375 -1.007812 5.40625 -1.125 C 5.445312 -1.25 5.46875 -1.351562 5.46875 -1.4375 L 5.59375 -1.4375 L 5.59375 0 L 0.546875 0 Z M 0.546875 -0.125 "/></g></g></g><g fill="#1c191a" fill-opacity="1"><g transform="translate(258.367363, 274.170809)"><g><path d="M 0.609375 -8.109375 L 2.359375 -8.109375 L 2.359375 -7.984375 L 2.296875 -7.984375 C 2.234375 -7.984375 2.175781 -7.957031 2.125 -7.90625 C 2.082031 -7.863281 2.046875 -7.8125 2.015625 -7.75 C 1.984375 -7.6875 1.957031 -7.617188 1.9375 -7.546875 C 1.914062 -7.472656 1.90625 -7.40625 1.90625 -7.34375 L 1.90625 -0.796875 C 1.90625 -0.734375 1.910156 -0.660156 1.921875 -0.578125 C 1.941406 -0.503906 1.96875 -0.429688 2 -0.359375 C 2.039062 -0.296875 2.082031 -0.238281 2.125 -0.1875 C 2.175781 -0.144531 2.234375 -0.125 2.296875 -0.125 L 2.359375 -0.125 L 2.359375 0 L 0.609375 0 L 0.609375 -0.125 L 0.65625 -0.125 C 0.726562 -0.125 0.785156 -0.144531 0.828125 -0.1875 C 0.878906 -0.238281 0.921875 -0.296875 0.953125 -0.359375 C 0.992188 -0.429688 1.019531 -0.503906 1.03125 -0.578125 C 1.050781 -0.660156 1.0625 -0.734375 1.0625 -0.796875 L 1.0625 -7.34375 C 1.0625 -7.40625 1.050781 -7.472656 1.03125 -7.546875 C 1.019531 -7.617188 0.992188 -7.6875 0.953125 -7.75 C 0.921875 -7.8125 0.878906 -7.863281 0.828125 -7.90625 C 0.785156 -7.957031 0.726562 -7.984375 0.65625 -7.984375 L 0.609375 -7.984375 Z M 0.609375 -8.109375 "/></g></g></g><g fill="#1c191a" fill-opacity="1"><g transform="translate(261.353488, 274.170809)"><g><path d="M 4.6875 -8.234375 C 5.332031 -8.234375 5.90625 -8.117188 6.40625 -7.890625 C 6.914062 -7.660156 7.347656 -7.351562 7.703125 -6.96875 C 8.054688 -6.59375 8.328125 -6.15625 8.515625 -5.65625 C 8.710938 -5.15625 8.8125 -4.628906 8.8125 -4.078125 C 8.8125 -3.460938 8.695312 -2.894531 8.46875 -2.375 C 8.25 -1.863281 7.941406 -1.421875 7.546875 -1.046875 C 7.160156 -0.679688 6.707031 -0.394531 6.1875 -0.1875 C 5.664062 0.0195312 5.109375 0.125 4.515625 0.125 C 3.890625 0.125 3.320312 0.0078125 2.8125 -0.21875 C 2.3125 -0.445312 1.882812 -0.75 1.53125 -1.125 C 1.1875 -1.5 0.921875 -1.929688 0.734375 -2.421875 C 0.546875 -2.921875 0.453125 -3.4375 0.453125 -3.96875 C 0.453125 -4.488281 0.546875 -5.003906 0.734375 -5.515625 C 0.921875 -6.023438 1.195312 -6.476562 1.5625 -6.875 C 1.925781 -7.28125 2.367188 -7.609375 2.890625 -7.859375 C 3.421875 -8.109375 4.019531 -8.234375 4.6875 -8.234375 Z M 4.671875 -0.3125 C 5.222656 -0.332031 5.707031 -0.453125 6.125 -0.671875 C 6.539062 -0.898438 6.882812 -1.1875 7.15625 -1.53125 C 7.4375 -1.882812 7.644531 -2.269531 7.78125 -2.6875 C 7.914062 -3.101562 7.984375 -3.519531 7.984375 -3.9375 C 7.984375 -4.382812 7.898438 -4.835938 7.734375 -5.296875 C 7.566406 -5.753906 7.332031 -6.164062 7.03125 -6.53125 C 6.726562 -6.90625 6.363281 -7.207031 5.9375 -7.4375 C 5.519531 -7.675781 5.050781 -7.796875 4.53125 -7.796875 C 4.019531 -7.796875 3.5625 -7.679688 3.15625 -7.453125 C 2.757812 -7.234375 2.421875 -6.945312 2.140625 -6.59375 C 1.859375 -6.238281 1.644531 -5.84375 1.5 -5.40625 C 1.351562 -4.976562 1.28125 -4.554688 1.28125 -4.140625 C 1.28125 -3.691406 1.363281 -3.238281 1.53125 -2.78125 C 1.707031 -2.320312 1.945312 -1.910156 2.25 -1.546875 C 2.550781 -1.179688 2.90625 -0.882812 3.3125 -0.65625 C 3.726562 -0.425781 4.179688 -0.3125 4.671875 -0.3125 Z M 4.671875 -0.3125 "/></g></g></g><g fill="#1c191a" fill-opacity="1"><g transform="translate(270.705116, 274.170809)"><g><path d="M 5.53125 -2.171875 C 5.53125 -1.765625 5.445312 -1.414062 5.28125 -1.125 C 5.113281 -0.832031 4.898438 -0.59375 4.640625 -0.40625 C 4.390625 -0.226562 4.101562 -0.0976562 3.78125 -0.015625 C 3.457031 0.0546875 3.132812 0.09375 2.8125 0.09375 C 2.488281 0.09375 2.207031 0.0625 1.96875 0 C 1.726562 -0.0625 1.507812 -0.125 1.3125 -0.1875 C 1.1875 -0.226562 1.066406 -0.257812 0.953125 -0.28125 C 0.847656 -0.3125 0.742188 -0.328125 0.640625 -0.328125 L 0.640625 -1.734375 L 0.765625 -1.734375 C 0.765625 -1.421875 0.84375 -1.171875 1 -0.984375 C 1.15625 -0.804688 1.335938 -0.664062 1.546875 -0.5625 C 1.765625 -0.46875 1.976562 -0.40625 2.1875 -0.375 C 2.40625 -0.34375 2.566406 -0.328125 2.671875 -0.328125 C 3.015625 -0.328125 3.3125 -0.378906 3.5625 -0.484375 C 3.820312 -0.585938 4.035156 -0.722656 4.203125 -0.890625 C 4.367188 -1.054688 4.488281 -1.238281 4.5625 -1.4375 C 4.632812 -1.644531 4.671875 -1.859375 4.671875 -2.078125 C 4.671875 -2.347656 4.613281 -2.570312 4.5 -2.75 C 4.382812 -2.9375 4.234375 -3.097656 4.046875 -3.234375 C 3.867188 -3.378906 3.660156 -3.5 3.421875 -3.59375 C 3.179688 -3.695312 2.941406 -3.796875 2.703125 -3.890625 C 2.421875 -3.992188 2.144531 -4.101562 1.875 -4.21875 C 1.601562 -4.332031 1.359375 -4.472656 1.140625 -4.640625 C 0.929688 -4.816406 0.757812 -5.019531 0.625 -5.25 C 0.5 -5.476562 0.4375 -5.765625 0.4375 -6.109375 C 0.4375 -6.472656 0.503906 -6.785156 0.640625 -7.046875 C 0.785156 -7.316406 0.972656 -7.535156 1.203125 -7.703125 C 1.441406 -7.878906 1.707031 -8.007812 2 -8.09375 C 2.300781 -8.1875 2.609375 -8.234375 2.921875 -8.234375 C 3.140625 -8.234375 3.34375 -8.21875 3.53125 -8.1875 C 3.71875 -8.15625 3.894531 -8.117188 4.0625 -8.078125 C 4.207031 -8.046875 4.34375 -8.019531 4.46875 -8 C 4.601562 -7.976562 4.726562 -7.96875 4.84375 -7.96875 L 4.84375 -6.703125 L 4.734375 -6.703125 C 4.710938 -7.128906 4.539062 -7.414062 4.21875 -7.5625 C 3.90625 -7.71875 3.460938 -7.796875 2.890625 -7.796875 C 2.566406 -7.796875 2.300781 -7.738281 2.09375 -7.625 C 1.882812 -7.519531 1.71875 -7.382812 1.59375 -7.21875 C 1.46875 -7.0625 1.382812 -6.890625 1.34375 -6.703125 C 1.300781 -6.523438 1.28125 -6.363281 1.28125 -6.21875 C 1.28125 -5.988281 1.328125 -5.789062 1.421875 -5.625 C 1.523438 -5.46875 1.660156 -5.328125 1.828125 -5.203125 C 2.003906 -5.078125 2.207031 -4.96875 2.4375 -4.875 C 2.664062 -4.78125 2.898438 -4.6875 3.140625 -4.59375 C 3.421875 -4.488281 3.703125 -4.375 3.984375 -4.25 C 4.273438 -4.125 4.53125 -3.972656 4.75 -3.796875 C 4.976562 -3.617188 5.164062 -3.394531 5.3125 -3.125 C 5.457031 -2.863281 5.53125 -2.546875 5.53125 -2.171875 Z M 5.53125 -2.171875 "/></g></g></g></svg>